<svg width="203" height="54" viewBox="0 0 203 54" fill="none" xmlns="http://www.w3.org/2000/svg">
<path d="M72.8288 0.63004C67.9382 0.63004 63.5306 3.89044 62.1117 8.56972C61.9608 9.05274 61.84 9.53576 61.7797 10.0188C61.6891 10.6226 61.6287 11.2263 61.6287 11.7999V23H64.0438V11.7999C64.0438 11.2867 64.1042 10.7735 64.1948 10.2603C67.0325 9.74708 69.9005 10.6226 71.9533 12.6754C74.4892 15.2113 78.0515 16.3584 81.5836 15.815V23H83.9987V11.7999C83.9987 5.64139 78.9873 0.63004 72.8288 0.63004ZM65.0702 7.69424C66.5797 4.88667 69.5684 3.04515 72.8288 3.04515C77.6288 3.04515 81.5836 6.99989 81.5836 11.7999V13.3396C78.7156 13.9131 75.7269 13.0075 73.6741 10.9546C71.5608 8.84142 68.6929 7.69424 65.7646 7.69424C65.5231 7.69424 65.3117 7.69424 65.0702 7.69424ZM106.375 0.63004L96.8957 10.1093L87.4466 0.63004H84.005L95.6881 12.3131V23H98.1334V12.3131L109.817 0.63004H106.375ZM122.227 0.63004V8.26783C120.596 8.81123 119.117 9.74708 117.879 10.9546C117.125 11.7094 116.249 12.3131 115.283 12.766V0.63004H112.838V23H115.283V15.3622C116.883 14.8188 118.393 13.883 119.6 12.6754C120.355 11.9207 121.23 11.3169 122.227 10.8641V23H124.642V0.63004H122.227ZM138.867 0.63004C133.976 0.63004 129.569 3.89044 128.15 8.56972C127.999 9.05274 127.878 9.53576 127.818 10.0188C127.727 10.6226 127.667 11.2263 127.667 11.7999V23H130.082V11.7999C130.082 11.2867 130.142 10.7735 130.233 10.2603C133.071 9.74708 135.939 10.6226 137.991 12.6754C140.527 15.2113 144.09 16.3584 147.622 15.815V23H150.037V11.7999C150.037 5.64139 145.025 0.63004 138.867 0.63004ZM131.108 7.69424C132.618 4.88667 135.607 3.04515 138.867 3.04515C143.667 3.04515 147.622 6.99989 147.622 11.7999V13.3396C144.754 13.9131 141.765 13.0075 139.712 10.9546C137.599 8.84142 134.731 7.69424 131.803 7.69424C131.561 7.69424 131.35 7.69424 131.108 7.69424ZM164.281 0.63004V17.6566L155.224 0.63004H153.05V23H155.465V5.97347L164.522 23H166.726V0.63004H164.281ZM74.8816 42.6113H81.01V40.1961H70.142L76.8741 49.5849H72.8288C67.9986 49.5849 64.0438 45.6301 64.0438 40.7999C64.0438 35.9999 67.9986 32.0452 72.8288 32.0452H81.01V29.63H72.8288C66.6401 29.63 61.6287 34.6414 61.6287 40.7999C61.6287 46.9886 66.6401 52 72.8288 52H81.6137L74.8816 42.6113ZM95.8242 29.63C90.9336 29.63 86.526 32.8904 85.1072 37.5697C84.9562 38.0527 84.8355 38.5358 84.7751 39.0188C84.6845 39.6226 84.6241 40.2263 84.6241 40.7999V52H87.0393V40.7999C87.0393 40.2867 87.0996 39.7735 87.1902 39.2603C90.0279 38.7471 92.8959 39.6226 94.9487 41.6754C97.4846 44.2113 101.047 45.3584 104.579 44.815V52H106.994V40.7999C106.994 34.6414 101.983 29.63 95.8242 29.63ZM88.0657 36.6942C89.5751 33.8867 92.5638 32.0452 95.8242 32.0452C100.624 32.0452 104.579 35.9999 104.579 40.7999V42.3396C101.711 42.9131 98.7223 42.0075 96.6695 39.9546C94.5563 37.8414 91.6883 36.6942 88.76 36.6942C88.5185 36.6942 88.3072 36.6942 88.0657 36.6942ZM118.793 29.63H110.008L118.038 40.7999L110.008 52H118.793C124.981 52 129.993 46.9886 129.993 40.7999C129.993 34.6414 124.981 29.63 118.793 29.63ZM118.793 49.5849H114.747L121.027 40.7999L114.747 32.0452H118.793C123.623 32.0452 127.547 35.9999 127.547 40.7999C127.547 45.6301 123.623 49.5849 118.793 49.5849ZM135.509 35.5471L137.531 29.63H135.026L133.003 35.5471L134.814 40.8301L133.003 46.1132L135.026 52H137.531L135.509 46.1132L137.32 40.7999L135.509 35.5471ZM152.716 44.0603C155.735 43.1245 157.848 40.2867 157.848 37.0263C157.848 32.9508 154.528 29.63 150.452 29.63H140.55V52H142.965V34.0074L155.192 52H158.12L152.716 44.0603ZM144.565 32.0753H150.452C153.199 32.0753 155.433 34.3093 155.433 37.0263C155.433 39.5018 153.652 41.5245 151.267 41.9169L144.565 32.0753ZM172.299 49.5849C167.469 49.5849 163.514 45.6301 163.514 40.7999V29.63H161.099V40.7999C161.099 46.9886 166.11 52 172.299 52H183.469V49.5547L172.299 49.5849ZM188.988 35.5471L191.01 29.63H188.505L186.482 35.5471L188.293 40.8301L186.482 46.1132L188.505 52H191.01L188.988 46.1132L190.799 40.7999L188.988 35.5471Z" fill="black"/>
<path d="M33.5971 29.6325H47.5444V24.1361H22.8103L38.1317 45.5035H28.9251C17.9322 45.5035 8.93174 36.5031 8.93174 25.5102C8.93174 14.586 17.9322 5.58552 28.9251 5.58552H47.5444V0.0890584H28.9251C14.8404 0.0890584 3.43529 11.4942 3.43529 25.5102C3.43529 39.5949 14.8404 51 28.9251 51H48.9185L33.5971 29.6325Z" fill="black"/>
</svg>
