<svg width="1075" height="567" viewBox="0 0 1075 567" fill="none" xmlns="http://www.w3.org/2000/svg">
<circle cx="236" cy="236" r="236" fill="#F2C94C"/>
<circle cx="968" cy="460" r="107" fill="#BB6BD9"/>
<path d="M205.913 142.903V171.452C205.913 182.331 197.078 191.092 186.199 191.092C175.32 191.092 166.558 182.331 166.558 171.452V142.903H157.651V171.452C157.651 187.223 170.428 200 186.199 200C201.97 200 214.747 187.223 214.747 171.452V142.903H205.913ZM291.691 142.903H279.133L256.864 165.173L234.595 142.903H222.037L250.585 171.452L222.037 200H234.595L256.864 177.731L279.133 200H291.691L263.143 171.452L291.691 142.903ZM365.053 137.208L329.204 205.768H339.207L375.129 137.208H365.053ZM460.889 142.903V171.452C460.889 182.331 452.055 191.092 441.176 191.092C430.297 191.092 421.535 182.331 421.535 171.452V142.903H412.627V171.452C412.627 187.223 425.405 200 441.176 200C456.946 200 469.724 187.223 469.724 171.452V142.903H460.889ZM485.921 200V142.903H477.013V200H485.921ZM544.753 142.903H523.36V200H544.679C560.45 200 573.301 187.223 573.301 171.452C573.301 155.754 560.45 142.903 544.753 142.903ZM544.679 191.165H532.267V151.811H544.679C555.558 151.811 564.393 160.646 564.393 171.452C564.393 182.331 555.558 191.165 544.679 191.165ZM636.18 151.738V142.903H580.544V200H636.18V191.092H589.452V175.906H635.815V166.998H589.452V151.738H636.18ZM659.348 151.811H700.6V142.903H697.607H659.786C656.135 142.977 652.703 144.145 649.783 146.408C645.84 149.548 643.504 154.294 643.504 159.405C643.504 165.465 646.789 171.014 652.192 173.861L652.265 173.934C652.338 174.007 652.484 174.08 652.63 174.153C654.821 175.248 657.157 175.833 659.64 175.833C659.713 175.906 659.713 175.906 667.963 175.906C674.607 175.906 683.661 175.906 684.537 175.906C688.626 176.125 691.766 179.483 691.766 183.499C691.766 187.588 688.626 190.873 684.537 191.165H643.504V200H684.099C687.823 200 691.328 198.759 694.248 196.495C698.264 193.356 700.6 188.61 700.6 183.499C700.6 177.731 697.534 172.328 692.569 169.334C692.204 169.115 691.839 168.969 691.474 168.75C690.159 168.093 688.845 167.655 687.385 167.363L659.567 166.998C655.551 166.779 652.338 163.493 652.338 159.405C652.338 155.462 655.405 152.103 659.348 151.811ZM721.47 171.452L717.089 158.674L722.565 142.903H713.293L707.89 158.601L712.27 171.452L707.89 184.229L713.293 200H722.492L717.089 184.229L721.47 171.452ZM766.284 177.293H779.792V168.458H749.053L765.335 191.092H758.399C747.52 191.092 738.758 182.331 738.758 171.452C738.758 160.573 747.52 151.738 758.399 151.738H779.792V142.903H758.399C742.628 142.903 729.851 155.681 729.851 171.452C729.851 187.223 742.628 200 758.399 200H782.639L766.284 177.293ZM817.048 142.903V179.556L797.554 142.903H789.887V200H798.795V163.347L818.289 200H825.956V142.903H817.048ZM888.875 151.738V142.903H833.239V200H888.875V191.092H842.147V175.906H888.51V166.998H842.147V151.738H888.875ZM929.42 180.067C936.356 177.074 941.029 170.138 941.029 162.325C941.029 151.592 932.34 142.903 921.68 142.903H896.199V200H905.106V159.843L932.267 200H943L929.42 180.067ZM924.309 172.474L910.217 151.811H921.68C927.448 151.811 932.194 156.484 932.194 162.325C932.194 167.217 928.909 171.306 924.309 172.474Z" fill="black"/>
<path d="M228.121 242.627H226.242V267.452H239.824V265.678H228.121V242.627ZM250.597 267.842C253.186 267.842 255.349 266.955 257.158 265.182C258.967 263.373 259.889 261.175 259.889 258.586C259.889 255.997 258.967 253.798 257.158 252.025C255.349 250.216 253.186 249.33 250.597 249.33C248.008 249.33 245.774 250.216 243.966 252.025C242.157 253.798 241.27 255.997 241.27 258.586C241.27 261.175 242.157 263.373 243.966 265.182C245.774 266.955 248.008 267.842 250.597 267.842ZM245.242 263.941C243.788 262.487 243.079 260.678 243.079 258.586C243.079 256.493 243.788 254.685 245.242 253.231C246.696 251.777 248.505 251.032 250.597 251.032C252.69 251.032 254.463 251.777 255.917 253.231C257.371 254.685 258.08 256.493 258.08 258.586C258.08 260.678 257.371 262.487 255.917 263.941C254.463 265.395 252.69 266.139 250.597 266.139C248.505 266.139 246.696 265.395 245.242 263.941ZM265.929 249.72H264.156V267.452H265.929V257.593C265.929 253.337 268.482 251.174 271.851 251.174V249.472C268.979 249.472 266.993 250.713 265.929 253.195V249.72ZM282.352 249.33C279.656 249.33 277.458 250.216 275.72 251.99C274.018 253.727 273.167 255.926 273.167 258.586C273.167 261.281 274.053 263.515 275.791 265.253C277.529 266.991 279.763 267.842 282.493 267.842C285.933 267.842 288.77 266.281 290.224 263.834L288.664 262.912C287.565 264.863 285.366 266.139 282.529 266.139C280.508 266.139 278.77 265.537 277.387 264.331C276.004 263.09 275.223 261.494 275.011 259.508H291.076C291.076 259.33 291.111 258.834 291.111 258.657C291.111 256.139 290.295 253.94 288.664 252.096C287.068 250.252 284.94 249.33 282.352 249.33ZM282.352 251.032C284.16 251.032 285.685 251.635 286.997 252.841C288.309 254.011 289.09 255.678 289.267 257.77H275.011C275.188 255.784 275.968 254.153 277.316 252.912C278.663 251.67 280.33 251.032 282.352 251.032ZM314.193 249.33C311.746 249.33 309.512 250.536 308.271 252.947C307.384 250.642 305.327 249.33 302.738 249.33C300.149 249.33 298.27 250.465 297.029 252.77V249.72H295.256V267.452H297.029V257.557C297.029 253.266 299.405 251.032 302.526 251.032C305.327 251.032 307.065 252.912 307.065 256.21V267.452H308.838V257.557C308.838 253.195 311.001 251.032 314.158 251.032C316.995 251.032 318.874 252.912 318.874 256.21V267.452H320.647V256.21C320.647 251.848 318.058 249.33 314.193 249.33ZM334.585 244.01C334.514 245.854 337.493 245.854 337.422 244.01C337.493 242.237 334.514 242.237 334.585 244.01ZM336.89 267.452V249.72H335.117V267.452H336.89ZM351.753 249.33C348.384 249.33 345.582 251.032 344.128 253.834V249.72H342.355V274.544H344.128V263.338C345.582 266.139 348.384 267.842 351.753 267.842C354.306 267.842 356.47 266.955 358.243 265.182C360.052 263.373 360.938 261.175 360.938 258.586C360.938 255.997 360.052 253.798 358.243 252.025C356.47 250.216 354.306 249.33 351.753 249.33ZM346.292 263.941C344.838 262.487 344.128 260.678 344.128 258.586C344.128 256.493 344.838 254.685 346.292 253.231C347.746 251.777 349.554 251.032 351.647 251.032C353.739 251.032 355.512 251.777 356.966 253.231C358.42 254.685 359.165 256.493 359.165 258.586C359.165 260.678 358.42 262.487 356.966 263.941C355.512 265.395 353.739 266.139 351.647 266.139C349.554 266.139 347.746 265.395 346.292 263.941ZM366.072 254.366C366.072 252.344 367.916 251.032 370.328 251.032C372.349 251.032 374.158 251.99 374.867 253.727L376.356 252.876C375.363 250.713 373.165 249.33 370.328 249.33C368.554 249.33 367.1 249.826 365.966 250.784C364.866 251.741 364.299 252.947 364.299 254.366C364.299 258.089 368.164 258.834 371.25 259.579C373.377 260.04 375.044 261.068 375.044 262.806C375.044 264.934 373.129 266.139 370.469 266.139C367.81 266.139 365.93 264.969 365.256 263.019L363.731 263.905C364.618 266.281 367.065 267.842 370.469 267.842C374.264 267.842 376.817 265.749 376.817 262.806C376.817 259.011 372.952 258.231 369.867 257.557C367.739 257.025 366.072 256.103 366.072 254.366ZM393.702 259.082C393.702 263.657 391.149 266.139 387.496 266.139C384.198 266.139 382.283 264.047 382.283 260.749V249.72H380.475V260.749C380.475 265.04 383.134 267.842 387.354 267.842C390.298 267.842 392.426 266.6 393.702 264.083V267.452H395.476V249.72H393.702V259.082ZM419.89 249.33C417.443 249.33 415.209 250.536 413.968 252.947C413.081 250.642 411.025 249.33 408.436 249.33C405.847 249.33 403.967 250.465 402.726 252.77V249.72H400.953V267.452H402.726V257.557C402.726 253.266 405.102 251.032 408.223 251.032C411.025 251.032 412.762 252.912 412.762 256.21V267.452H414.535V257.557C414.535 253.195 416.699 251.032 419.855 251.032C422.692 251.032 424.572 252.912 424.572 256.21V267.452H426.345V256.21C426.345 251.848 423.756 249.33 419.89 249.33ZM456.454 253.834C455 251.032 452.198 249.33 448.829 249.33C446.276 249.33 444.113 250.216 442.304 252.025C440.531 253.798 439.644 255.997 439.644 258.586C439.644 261.175 440.531 263.373 442.304 265.182C444.113 266.955 446.276 267.842 448.829 267.842C452.198 267.842 455 266.139 456.454 263.338V267.452H458.227V242.627H456.454V253.834ZM443.581 263.941C442.127 262.487 441.418 260.678 441.418 258.586C441.418 256.493 442.127 254.685 443.581 253.231C445.035 251.777 446.843 251.032 448.936 251.032C451.028 251.032 452.801 251.777 454.255 253.231C455.709 254.685 456.454 256.493 456.454 258.586C456.454 260.678 455.709 262.487 454.255 263.941C452.801 265.395 451.028 266.139 448.936 266.139C446.843 266.139 445.035 265.395 443.581 263.941ZM471.793 267.842C474.382 267.842 476.545 266.955 478.354 265.182C480.162 263.373 481.084 261.175 481.084 258.586C481.084 255.997 480.162 253.798 478.354 252.025C476.545 250.216 474.382 249.33 471.793 249.33C469.204 249.33 466.97 250.216 465.161 252.025C463.353 253.798 462.466 255.997 462.466 258.586C462.466 261.175 463.353 263.373 465.161 265.182C466.97 266.955 469.204 267.842 471.793 267.842ZM466.438 263.941C464.984 262.487 464.275 260.678 464.275 258.586C464.275 256.493 464.984 254.685 466.438 253.231C467.892 251.777 469.701 251.032 471.793 251.032C473.885 251.032 475.658 251.777 477.112 253.231C478.566 254.685 479.276 256.493 479.276 258.586C479.276 260.678 478.566 262.487 477.112 263.941C475.658 265.395 473.885 266.139 471.793 266.139C469.701 266.139 467.892 265.395 466.438 263.941ZM487.125 267.452V241.563H485.352V267.452H487.125ZM500.711 267.842C503.3 267.842 505.463 266.955 507.272 265.182C509.08 263.373 510.002 261.175 510.002 258.586C510.002 255.997 509.08 253.798 507.272 252.025C505.463 250.216 503.3 249.33 500.711 249.33C498.122 249.33 495.888 250.216 494.079 252.025C492.271 253.798 491.384 255.997 491.384 258.586C491.384 261.175 492.271 263.373 494.079 265.182C495.888 266.955 498.122 267.842 500.711 267.842ZM495.356 263.941C493.902 262.487 493.193 260.678 493.193 258.586C493.193 256.493 493.902 254.685 495.356 253.231C496.81 251.777 498.619 251.032 500.711 251.032C502.803 251.032 504.576 251.777 506.03 253.231C507.484 254.685 508.194 256.493 508.194 258.586C508.194 260.678 507.484 262.487 506.03 263.941C504.576 265.395 502.803 266.139 500.711 266.139C498.619 266.139 496.81 265.395 495.356 263.941ZM516.043 249.72H514.269V267.452H516.043V257.593C516.043 253.337 518.596 251.174 521.965 251.174V249.472C519.093 249.472 517.107 250.713 516.043 253.195V249.72ZM536.22 254.366C536.22 252.344 538.064 251.032 540.476 251.032C542.497 251.032 544.306 251.99 545.015 253.727L546.504 252.876C545.511 250.713 543.313 249.33 540.476 249.33C538.702 249.33 537.248 249.826 536.114 250.784C535.014 251.741 534.447 252.947 534.447 254.366C534.447 258.089 538.312 258.834 541.398 259.579C543.525 260.04 545.192 261.068 545.192 262.806C545.192 264.934 543.277 266.139 540.617 266.139C537.958 266.139 536.078 264.969 535.404 263.019L533.879 263.905C534.766 266.281 537.213 267.842 540.617 267.842C544.412 267.842 546.965 265.749 546.965 262.806C546.965 259.011 543.1 258.231 540.014 257.557C537.887 257.025 536.22 256.103 536.22 254.366ZM550.552 244.01C550.481 245.854 553.46 245.854 553.389 244.01C553.46 242.237 550.481 242.237 550.552 244.01ZM552.857 267.452V249.72H551.083V267.452H552.857ZM567.4 249.72H562.116V244.755L560.308 245.287V249.72H556.407V251.458H560.308V262.983C560.308 266.92 562.613 268.161 567.4 267.452V265.856C563.783 266.21 562.116 266.068 562.116 262.983V251.458H567.4V249.72ZM596.713 253.727C595.189 250.997 592.458 249.33 589.089 249.33C586.571 249.33 584.408 250.216 582.599 252.025C580.79 253.798 579.904 255.997 579.904 258.586C579.904 261.175 580.79 263.373 582.599 265.182C584.408 266.955 586.571 267.842 589.089 267.842C592.458 267.842 595.189 266.175 596.713 263.444V267.452H598.522V249.72H596.713V253.727ZM583.876 263.941C582.422 262.487 581.712 260.678 581.712 258.586C581.712 256.493 582.422 254.685 583.876 253.231C585.33 251.777 587.138 251.032 589.231 251.032C591.323 251.032 593.096 251.777 594.55 253.231C596.004 254.685 596.713 256.493 596.713 258.586C596.713 260.678 596.004 262.487 594.55 263.941C593.096 265.395 591.323 266.139 589.231 266.139C587.138 266.139 585.33 265.395 583.876 263.941ZM622.904 249.33C620.457 249.33 618.223 250.536 616.982 252.947C616.095 250.642 614.038 249.33 611.45 249.33C608.861 249.33 606.981 250.465 605.74 252.77V249.72H603.967V267.452H605.74V257.557C605.74 253.266 608.116 251.032 611.237 251.032C614.038 251.032 615.776 252.912 615.776 256.21V267.452H617.549V257.557C617.549 253.195 619.713 251.032 622.869 251.032C625.706 251.032 627.585 252.912 627.585 256.21V267.452H629.359V256.21C629.359 251.848 626.77 249.33 622.904 249.33ZM642.353 249.33C639.658 249.33 637.459 250.216 635.722 251.99C634.019 253.727 633.168 255.926 633.168 258.586C633.168 261.281 634.055 263.515 635.792 265.253C637.53 266.991 639.764 267.842 642.495 267.842C645.935 267.842 648.772 266.281 650.226 263.834L648.666 262.912C647.566 264.863 645.368 266.139 642.53 266.139C640.509 266.139 638.771 265.537 637.388 264.331C636.005 263.09 635.225 261.494 635.012 259.508H651.077C651.077 259.33 651.113 258.834 651.113 258.657C651.113 256.139 650.297 253.94 648.666 252.096C647.07 250.252 644.942 249.33 642.353 249.33ZM642.353 251.032C644.162 251.032 645.687 251.635 646.999 252.841C648.311 254.011 649.091 255.678 649.269 257.77H635.012C635.19 255.784 635.97 254.153 637.317 252.912C638.665 251.67 640.332 251.032 642.353 251.032ZM663.816 249.72H658.532V244.755L656.724 245.287V249.72H652.823V251.458H656.724V262.983C656.724 266.92 659.029 268.161 663.816 267.452V265.856C660.199 266.21 658.532 266.068 658.532 262.983V251.458H663.816V249.72ZM668.887 265.04L667.539 272.416H669.17L671.085 265.04H668.887ZM693.543 267.842C696.983 267.842 699.997 266.068 701.416 263.338L699.926 262.451C698.756 264.721 696.38 266.139 693.543 266.139C691.415 266.139 689.642 265.43 688.188 263.976C686.734 262.522 686.025 260.713 686.025 258.586C686.025 256.458 686.734 254.685 688.188 253.231C689.642 251.777 691.415 251.032 693.543 251.032C696.38 251.032 698.791 252.451 699.82 254.72L701.274 253.869C699.997 251.067 696.983 249.33 693.543 249.33C690.883 249.33 688.649 250.216 686.876 251.99C685.103 253.763 684.216 255.961 684.216 258.586C684.216 261.21 685.103 263.409 686.876 265.182C688.649 266.955 690.883 267.842 693.543 267.842ZM713.249 267.842C715.837 267.842 718.001 266.955 719.809 265.182C721.618 263.373 722.54 261.175 722.54 258.586C722.54 255.997 721.618 253.798 719.809 252.025C718.001 250.216 715.837 249.33 713.249 249.33C710.66 249.33 708.425 250.216 706.617 252.025C704.808 253.798 703.922 255.997 703.922 258.586C703.922 261.175 704.808 263.373 706.617 265.182C708.425 266.955 710.66 267.842 713.249 267.842ZM707.894 263.941C706.44 262.487 705.73 260.678 705.73 258.586C705.73 256.493 706.44 254.685 707.894 253.231C709.348 251.777 711.156 251.032 713.249 251.032C715.341 251.032 717.114 251.777 718.568 253.231C720.022 254.685 720.731 256.493 720.731 258.586C720.731 260.678 720.022 262.487 718.568 263.941C717.114 265.395 715.341 266.139 713.249 266.139C711.156 266.139 709.348 265.395 707.894 263.941ZM734.928 249.33C731.985 249.33 729.857 250.571 728.58 253.089V249.72H726.807V267.452H728.58V258.089C728.58 253.514 731.134 251.032 734.786 251.032C738.085 251.032 740 253.124 740 256.422V267.452H741.808V256.422C741.808 252.131 739.148 249.33 734.928 249.33ZM748.03 254.366C748.03 252.344 749.874 251.032 752.286 251.032C754.307 251.032 756.116 251.99 756.825 253.727L758.315 252.876C757.322 250.713 755.123 249.33 752.286 249.33C750.513 249.33 749.059 249.826 747.924 250.784C746.825 251.741 746.257 252.947 746.257 254.366C746.257 258.089 750.123 258.834 753.208 259.579C755.336 260.04 757.003 261.068 757.003 262.806C757.003 264.934 755.088 266.139 752.428 266.139C749.768 266.139 747.889 264.969 747.215 263.019L745.69 263.905C746.576 266.281 749.023 267.842 752.428 267.842C756.222 267.842 758.776 265.749 758.776 262.806C758.776 259.011 754.91 258.231 751.825 257.557C749.697 257.025 748.03 256.103 748.03 254.366ZM770.527 249.33C767.832 249.33 765.633 250.216 763.895 251.99C762.193 253.727 761.342 255.926 761.342 258.586C761.342 261.281 762.228 263.515 763.966 265.253C765.704 266.991 767.938 267.842 770.669 267.842C774.109 267.842 776.946 266.281 778.4 263.834L776.839 262.912C775.74 264.863 773.541 266.139 770.704 266.139C768.683 266.139 766.945 265.537 765.562 264.331C764.179 263.09 763.399 261.494 763.186 259.508H779.251C779.251 259.33 779.286 258.834 779.286 258.657C779.286 256.139 778.471 253.94 776.839 252.096C775.244 250.252 773.116 249.33 770.527 249.33ZM770.527 251.032C772.336 251.032 773.86 251.635 775.173 252.841C776.485 254.011 777.265 255.678 777.442 257.77H763.186C763.363 255.784 764.143 254.153 765.491 252.912C766.839 251.67 768.505 251.032 770.527 251.032ZM791.552 267.842C794.992 267.842 798.006 266.068 799.425 263.338L797.935 262.451C796.765 264.721 794.389 266.139 791.552 266.139C789.424 266.139 787.651 265.43 786.197 263.976C784.743 262.522 784.034 260.713 784.034 258.586C784.034 256.458 784.743 254.685 786.197 253.231C787.651 251.777 789.424 251.032 791.552 251.032C794.389 251.032 796.8 252.451 797.829 254.72L799.283 253.869C798.006 251.067 794.992 249.33 791.552 249.33C788.892 249.33 786.658 250.216 784.885 251.99C783.112 253.763 782.225 255.961 782.225 258.586C782.225 261.21 783.112 263.409 784.885 265.182C786.658 266.955 788.892 267.842 791.552 267.842ZM812.388 249.72H807.104V244.755L805.296 245.287V249.72H801.395V251.458H805.296V262.983C805.296 266.92 807.601 268.161 812.388 267.452V265.856C808.771 266.21 807.104 266.068 807.104 262.983V251.458H812.388V249.72ZM823.549 249.33C820.854 249.33 818.655 250.216 816.917 251.99C815.215 253.727 814.364 255.926 814.364 258.586C814.364 261.281 815.25 263.515 816.988 265.253C818.726 266.991 820.96 267.842 823.691 267.842C827.131 267.842 829.968 266.281 831.422 263.834L829.861 262.912C828.762 264.863 826.563 266.139 823.726 266.139C821.705 266.139 819.967 265.537 818.584 264.331C817.201 263.09 816.421 261.494 816.208 259.508H832.273C832.273 259.33 832.308 258.834 832.308 258.657C832.308 256.139 831.493 253.94 829.861 252.096C828.265 250.252 826.138 249.33 823.549 249.33ZM823.549 251.032C825.357 251.032 826.882 251.635 828.194 252.841C829.507 254.011 830.287 255.678 830.464 257.77H816.208C816.385 255.784 817.165 254.153 818.513 252.912C819.861 251.67 821.527 251.032 823.549 251.032ZM845.012 249.72H839.728V244.755L837.919 245.287V249.72H834.018V251.458H837.919V262.983C837.919 266.92 840.224 268.161 845.012 267.452V265.856C841.395 266.21 839.728 266.068 839.728 262.983V251.458H845.012V249.72ZM862.033 259.082C862.033 263.657 859.48 266.139 855.827 266.139C852.529 266.139 850.614 264.047 850.614 260.749V249.72H848.806V260.749C848.806 265.04 851.465 267.842 855.685 267.842C858.629 267.842 860.757 266.6 862.033 264.083V267.452H863.807V249.72H862.033V259.082ZM871.057 249.72H869.284V267.452H871.057V257.593C871.057 253.337 873.611 251.174 876.98 251.174V249.472C874.107 249.472 872.121 250.713 871.057 253.195V249.72ZM195.136 296.727C193.611 293.997 190.88 292.33 187.511 292.33C184.993 292.33 182.83 293.216 181.022 295.025C179.213 296.798 178.326 298.997 178.326 301.586C178.326 304.175 179.213 306.373 181.022 308.182C182.83 309.955 184.993 310.842 187.511 310.842C190.88 310.842 193.611 309.175 195.136 306.444V310.452H196.945V292.72H195.136V296.727ZM182.298 306.941C180.844 305.487 180.135 303.678 180.135 301.586C180.135 299.493 180.844 297.685 182.298 296.231C183.752 294.777 185.561 294.032 187.653 294.032C189.746 294.032 191.519 294.777 192.973 296.231C194.427 297.685 195.136 299.493 195.136 301.586C195.136 303.678 194.427 305.487 192.973 306.941C191.519 308.395 189.746 309.139 187.653 309.139C185.561 309.139 183.752 308.395 182.298 306.941ZM218.029 296.834C216.575 294.032 213.773 292.33 210.404 292.33C207.851 292.33 205.687 293.216 203.879 295.025C202.106 296.798 201.219 298.997 201.219 301.586C201.219 304.175 202.106 306.373 203.879 308.182C205.687 309.955 207.851 310.842 210.404 310.842C213.773 310.842 216.575 309.139 218.029 306.338V310.452H219.802V285.627H218.029V296.834ZM205.155 306.941C203.701 305.487 202.992 303.678 202.992 301.586C202.992 299.493 203.701 297.685 205.155 296.231C206.609 294.777 208.418 294.032 210.51 294.032C212.603 294.032 214.376 294.777 215.83 296.231C217.284 297.685 218.029 299.493 218.029 301.586C218.029 303.678 217.284 305.487 215.83 306.941C214.376 308.395 212.603 309.139 210.51 309.139C208.418 309.139 206.609 308.395 205.155 306.941ZM224.715 287.01C224.644 288.854 227.623 288.854 227.552 287.01C227.623 285.237 224.644 285.237 224.715 287.01ZM227.02 310.452V292.72H225.247V310.452H227.02ZM241.882 292.33C238.513 292.33 235.712 294.032 234.258 296.834V292.72H232.485V317.544H234.258V306.338C235.712 309.139 238.513 310.842 241.882 310.842C244.436 310.842 246.599 309.955 248.372 308.182C250.181 306.373 251.068 304.175 251.068 301.586C251.068 298.997 250.181 296.798 248.372 295.025C246.599 293.216 244.436 292.33 241.882 292.33ZM236.421 306.941C234.967 305.487 234.258 303.678 234.258 301.586C234.258 299.493 234.967 297.685 236.421 296.231C237.875 294.777 239.684 294.032 241.776 294.032C243.868 294.032 245.642 294.777 247.096 296.231C248.55 297.685 249.294 299.493 249.294 301.586C249.294 303.678 248.55 305.487 247.096 306.941C245.642 308.395 243.868 309.139 241.776 309.139C239.684 309.139 237.875 308.395 236.421 306.941ZM254.81 287.01C254.739 288.854 257.718 288.854 257.647 287.01C257.718 285.237 254.739 285.237 254.81 287.01ZM257.115 310.452V292.72H255.342V310.452H257.115ZM263.786 297.366C263.786 295.344 265.63 294.032 268.041 294.032C270.063 294.032 271.871 294.99 272.581 296.727L274.07 295.876C273.077 293.713 270.879 292.33 268.041 292.33C266.268 292.33 264.814 292.826 263.679 293.784C262.58 294.741 262.013 295.947 262.013 297.366C262.013 301.089 265.878 301.834 268.963 302.579C271.091 303.04 272.758 304.068 272.758 305.806C272.758 307.934 270.843 309.139 268.183 309.139C265.524 309.139 263.644 307.969 262.97 306.019L261.445 306.905C262.332 309.281 264.779 310.842 268.183 310.842C271.978 310.842 274.531 308.749 274.531 305.806C274.531 302.011 270.666 301.231 267.58 300.557C265.453 300.025 263.786 299.103 263.786 297.366ZM286.424 310.842C289.864 310.842 292.879 309.068 294.297 306.338L292.808 305.451C291.637 307.721 289.261 309.139 286.424 309.139C284.296 309.139 282.523 308.43 281.069 306.976C279.615 305.522 278.906 303.713 278.906 301.586C278.906 299.458 279.615 297.685 281.069 296.231C282.523 294.777 284.296 294.032 286.424 294.032C289.261 294.032 291.673 295.451 292.701 297.72L294.155 296.869C292.879 294.067 289.864 292.33 286.424 292.33C283.764 292.33 281.53 293.216 279.757 294.99C277.984 296.763 277.097 298.961 277.097 301.586C277.097 304.21 277.984 306.409 279.757 308.182C281.53 309.955 283.764 310.842 286.424 310.842ZM297.65 287.01C297.579 288.854 300.558 288.854 300.487 287.01C300.558 285.237 297.579 285.237 297.65 287.01ZM299.955 310.452V292.72H298.182V310.452H299.955ZM313.541 292.33C310.598 292.33 308.47 293.571 307.193 296.089V292.72H305.42V310.452H307.193V301.089C307.193 296.514 309.747 294.032 313.399 294.032C316.697 294.032 318.612 296.124 318.612 299.422V310.452H320.421V299.422C320.421 295.131 317.761 292.33 313.541 292.33ZM341.183 296.834C339.729 294.032 336.928 292.33 333.559 292.33C331.005 292.33 328.842 293.216 327.033 295.025C325.26 296.798 324.374 298.997 324.374 301.586C324.374 304.175 325.26 306.373 327.033 308.182C328.842 309.955 331.005 310.842 333.559 310.842C336.928 310.842 339.729 309.139 341.183 306.338V309.6C341.183 313.679 338.523 316.232 334.126 316.232C330.722 316.232 328.452 315.097 327.317 312.792L325.757 313.679C327.069 316.338 330.048 317.934 334.126 317.934C336.644 317.934 338.772 317.19 340.438 315.7C342.105 314.211 342.956 312.189 342.956 309.6V292.72H341.183V296.834ZM328.31 306.941C326.856 305.487 326.147 303.678 326.147 301.586C326.147 299.493 326.856 297.685 328.31 296.231C329.764 294.777 331.573 294.032 333.665 294.032C335.757 294.032 337.531 294.777 338.984 296.231C340.438 297.685 341.183 299.493 341.183 301.586C341.183 303.678 340.438 305.487 338.984 306.941C337.531 308.395 335.757 309.139 333.665 309.139C331.573 309.139 329.764 308.395 328.31 306.941ZM365.867 292.33C363.172 292.33 360.973 293.216 359.235 294.99C357.533 296.727 356.682 298.926 356.682 301.586C356.682 304.281 357.569 306.515 359.306 308.253C361.044 309.991 363.278 310.842 366.009 310.842C369.449 310.842 372.286 309.281 373.74 306.834L372.18 305.912C371.08 307.863 368.881 309.139 366.044 309.139C364.023 309.139 362.285 308.537 360.902 307.331C359.519 306.09 358.739 304.494 358.526 302.508H374.591C374.591 302.33 374.627 301.834 374.627 301.657C374.627 299.139 373.811 296.94 372.18 295.096C370.584 293.252 368.456 292.33 365.867 292.33ZM365.867 294.032C367.676 294.032 369.201 294.635 370.513 295.841C371.825 297.011 372.605 298.678 372.782 300.77H358.526C358.704 298.784 359.484 297.153 360.831 295.912C362.179 294.67 363.846 294.032 365.867 294.032ZM380.544 310.452V284.563H378.771V310.452H380.544ZM385.477 287.01C385.406 288.854 388.385 288.854 388.314 287.01C388.385 285.237 385.406 285.237 385.477 287.01ZM387.782 310.452V292.72H386.009V310.452H387.782ZM402.326 292.72H397.042V287.755L395.233 288.287V292.72H391.332V294.458H395.233V305.983C395.233 309.92 397.538 311.161 402.326 310.452V308.856C398.709 309.21 397.042 309.068 397.042 305.983V294.458H402.326V292.72ZM408.779 310.345C409.382 309.742 409.382 308.678 408.779 308.075C408.177 307.473 407.113 307.473 406.51 308.075C405.907 308.678 405.907 309.742 406.51 310.345C407.113 310.948 408.177 310.948 408.779 310.345ZM431.529 310.842C433.976 310.842 435.962 310.239 437.451 308.998C438.941 307.756 439.685 306.09 439.685 304.033C439.685 302.011 438.941 300.486 437.132 299.387C436.246 298.82 435.43 298.394 434.65 298.075C433.905 297.756 432.841 297.366 431.458 296.905C429.295 296.195 427.77 295.521 426.812 294.848C425.855 294.174 425.394 293.181 425.394 291.833C425.394 289.032 427.592 287.046 430.997 287.046C434.082 287.046 436.21 288.464 437.38 291.337L438.976 290.45C437.7 287.365 434.862 285.237 430.997 285.237C428.834 285.237 427.061 285.84 425.607 287.081C424.188 288.287 423.479 289.883 423.479 291.904C423.479 293.145 423.869 294.174 424.294 294.919C424.72 295.628 425.819 296.408 426.493 296.834C426.812 297.046 427.344 297.295 428.018 297.578L429.578 298.181L431.352 298.749C433.55 299.458 435.182 300.167 436.21 300.912C437.239 301.657 437.77 302.685 437.77 304.068C437.77 307.012 435.536 309.033 431.529 309.033C427.557 309.033 424.968 307.118 424.082 304.033L422.45 304.99C423.585 308.572 426.954 310.842 431.529 310.842ZM456.716 302.082C456.716 306.657 454.162 309.139 450.51 309.139C447.211 309.139 445.296 307.047 445.296 303.749V292.72H443.488V303.749C443.488 308.04 446.148 310.842 450.368 310.842C453.311 310.842 455.439 309.6 456.716 307.083V310.452H458.489V292.72H456.716V302.082ZM465.172 297.366C465.172 295.344 467.016 294.032 469.428 294.032C471.449 294.032 473.258 294.99 473.967 296.727L475.456 295.876C474.463 293.713 472.265 292.33 469.428 292.33C467.654 292.33 466.2 292.826 465.066 293.784C463.966 294.741 463.399 295.947 463.399 297.366C463.399 301.089 467.264 301.834 470.35 302.579C472.477 303.04 474.144 304.068 474.144 305.806C474.144 307.934 472.229 309.139 469.569 309.139C466.91 309.139 465.03 307.969 464.356 306.019L462.831 306.905C463.718 309.281 466.165 310.842 469.569 310.842C473.364 310.842 475.917 308.749 475.917 305.806C475.917 302.011 472.052 301.231 468.967 300.557C466.839 300.025 465.172 299.103 465.172 297.366ZM489.606 292.33C486.237 292.33 483.436 294.032 481.982 296.834V292.72H480.209V317.544H481.982V306.338C483.436 309.139 486.237 310.842 489.606 310.842C492.16 310.842 494.323 309.955 496.096 308.182C497.905 306.373 498.792 304.175 498.792 301.586C498.792 298.997 497.905 296.798 496.096 295.025C494.323 293.216 492.16 292.33 489.606 292.33ZM484.145 306.941C482.691 305.487 481.982 303.678 481.982 301.586C481.982 299.493 482.691 297.685 484.145 296.231C485.599 294.777 487.408 294.032 489.5 294.032C491.592 294.032 493.366 294.777 494.82 296.231C496.274 297.685 497.018 299.493 497.018 301.586C497.018 303.678 496.274 305.487 494.82 306.941C493.366 308.395 491.592 309.139 489.5 309.139C487.408 309.139 485.599 308.395 484.145 306.941ZM511.045 292.33C508.35 292.33 506.151 293.216 504.414 294.99C502.711 296.727 501.86 298.926 501.86 301.586C501.86 304.281 502.747 306.515 504.484 308.253C506.222 309.991 508.456 310.842 511.187 310.842C514.627 310.842 517.464 309.281 518.918 306.834L517.358 305.912C516.258 307.863 514.06 309.139 511.223 309.139C509.201 309.139 507.463 308.537 506.08 307.331C504.697 306.09 503.917 304.494 503.704 302.508H519.769C519.769 302.33 519.805 301.834 519.805 301.657C519.805 299.139 518.989 296.94 517.358 295.096C515.762 293.252 513.634 292.33 511.045 292.33ZM511.045 294.032C512.854 294.032 514.379 294.635 515.691 295.841C517.003 297.011 517.783 298.678 517.961 300.77H503.704C503.882 298.784 504.662 297.153 506.009 295.912C507.357 294.67 509.024 294.032 511.045 294.032ZM532.07 292.33C529.127 292.33 526.999 293.571 525.722 296.089V292.72H523.949V310.452H525.722V301.089C525.722 296.514 528.276 294.032 531.928 294.032C535.227 294.032 537.142 296.124 537.142 299.422V310.452H538.95V299.422C538.95 295.131 536.29 292.33 532.07 292.33ZM559.606 296.834C558.152 294.032 555.35 292.33 551.981 292.33C549.428 292.33 547.265 293.216 545.456 295.025C543.683 296.798 542.796 298.997 542.796 301.586C542.796 304.175 543.683 306.373 545.456 308.182C547.265 309.955 549.428 310.842 551.981 310.842C555.35 310.842 558.152 309.139 559.606 306.338V310.452H561.379V285.627H559.606V296.834ZM546.733 306.941C545.279 305.487 544.569 303.678 544.569 301.586C544.569 299.493 545.279 297.685 546.733 296.231C548.187 294.777 549.995 294.032 552.088 294.032C554.18 294.032 555.953 294.777 557.407 296.231C558.861 297.685 559.606 299.493 559.606 301.586C559.606 303.678 558.861 305.487 557.407 306.941C555.953 308.395 554.18 309.139 552.088 309.139C549.995 309.139 548.187 308.395 546.733 306.941ZM566.292 287.01C566.221 288.854 569.2 288.854 569.129 287.01C569.2 285.237 566.221 285.237 566.292 287.01ZM568.597 310.452V292.72H566.824V310.452H568.597ZM575.268 297.366C575.268 295.344 577.112 294.032 579.523 294.032C581.545 294.032 583.353 294.99 584.063 296.727L585.552 295.876C584.559 293.713 582.36 292.33 579.523 292.33C577.75 292.33 576.296 292.826 575.161 293.784C574.062 294.741 573.495 295.947 573.495 297.366C573.495 301.089 577.36 301.834 580.445 302.579C582.573 303.04 584.24 304.068 584.24 305.806C584.24 307.934 582.325 309.139 579.665 309.139C577.005 309.139 575.126 307.969 574.452 306.019L572.927 306.905C573.814 309.281 576.261 310.842 579.665 310.842C583.46 310.842 586.013 308.749 586.013 305.806C586.013 302.011 582.148 301.231 579.062 300.557C576.934 300.025 575.268 299.103 575.268 297.366ZM590.437 297.366C590.437 295.344 592.281 294.032 594.692 294.032C596.714 294.032 598.522 294.99 599.231 296.727L600.721 295.876C599.728 293.713 597.529 292.33 594.692 292.33C592.919 292.33 591.465 292.826 590.33 293.784C589.231 294.741 588.663 295.947 588.663 297.366C588.663 301.089 592.529 301.834 595.614 302.579C597.742 303.04 599.409 304.068 599.409 305.806C599.409 307.934 597.494 309.139 594.834 309.139C592.174 309.139 590.295 307.969 589.621 306.019L588.096 306.905C588.983 309.281 591.43 310.842 594.834 310.842C598.629 310.842 601.182 308.749 601.182 305.806C601.182 302.011 597.316 301.231 594.231 300.557C592.103 300.025 590.437 299.103 590.437 297.366ZM612.933 292.33C610.238 292.33 608.039 293.216 606.301 294.99C604.599 296.727 603.748 298.926 603.748 301.586C603.748 304.281 604.635 306.515 606.372 308.253C608.11 309.991 610.344 310.842 613.075 310.842C616.515 310.842 619.352 309.281 620.806 306.834L619.246 305.912C618.146 307.863 615.947 309.139 613.11 309.139C611.089 309.139 609.351 308.537 607.968 307.331C606.585 306.09 605.805 304.494 605.592 302.508H621.657C621.657 302.33 621.693 301.834 621.693 301.657C621.693 299.139 620.877 296.94 619.246 295.096C617.65 293.252 615.522 292.33 612.933 292.33ZM612.933 294.032C614.742 294.032 616.267 294.635 617.579 295.841C618.891 297.011 619.671 298.678 619.848 300.77H605.592C605.77 298.784 606.55 297.153 607.897 295.912C609.245 294.67 610.912 294.032 612.933 294.032ZM650.895 296.727C649.371 293.997 646.64 292.33 643.271 292.33C640.753 292.33 638.59 293.216 636.781 295.025C634.972 296.798 634.086 298.997 634.086 301.586C634.086 304.175 634.972 306.373 636.781 308.182C638.59 309.955 640.753 310.842 643.271 310.842C646.64 310.842 649.371 309.175 650.895 306.444V310.452H652.704V292.72H650.895V296.727ZM638.058 306.941C636.604 305.487 635.894 303.678 635.894 301.586C635.894 299.493 636.604 297.685 638.058 296.231C639.512 294.777 641.32 294.032 643.413 294.032C645.505 294.032 647.278 294.777 648.732 296.231C650.186 297.685 650.895 299.493 650.895 301.586C650.895 303.678 650.186 305.487 648.732 306.941C647.278 308.395 645.505 309.139 643.413 309.139C641.32 309.139 639.512 308.395 638.058 306.941ZM683.207 296.727C681.682 293.997 678.952 292.33 675.583 292.33C673.065 292.33 670.902 293.216 669.093 295.025C667.284 296.798 666.398 298.997 666.398 301.586C666.398 304.175 667.284 306.373 669.093 308.182C670.902 309.955 673.065 310.842 675.583 310.842C678.952 310.842 681.682 309.175 683.207 306.444V310.452H685.016V292.72H683.207V296.727ZM670.37 306.941C668.916 305.487 668.206 303.678 668.206 301.586C668.206 299.493 668.916 297.685 670.37 296.231C671.824 294.777 673.632 294.032 675.725 294.032C677.817 294.032 679.59 294.777 681.044 296.231C682.498 297.685 683.207 299.493 683.207 301.586C683.207 303.678 682.498 305.487 681.044 306.941C679.59 308.395 677.817 309.139 675.725 309.139C673.632 309.139 671.824 308.395 670.37 306.941ZM698.582 310.842C702.022 310.842 705.036 309.068 706.455 306.338L704.965 305.451C703.795 307.721 701.419 309.139 698.582 309.139C696.454 309.139 694.681 308.43 693.227 306.976C691.773 305.522 691.064 303.713 691.064 301.586C691.064 299.458 691.773 297.685 693.227 296.231C694.681 294.777 696.454 294.032 698.582 294.032C701.419 294.032 703.83 295.451 704.859 297.72L706.313 296.869C705.036 294.067 702.022 292.33 698.582 292.33C695.922 292.33 693.688 293.216 691.915 294.99C690.141 296.763 689.255 298.961 689.255 301.586C689.255 304.21 690.141 306.409 691.915 308.182C693.688 309.955 695.922 310.842 698.582 310.842ZM718.288 310.842C721.728 310.842 724.742 309.068 726.16 306.338L724.671 305.451C723.501 307.721 721.125 309.139 718.288 309.139C716.16 309.139 714.387 308.43 712.933 306.976C711.479 305.522 710.769 303.713 710.769 301.586C710.769 299.458 711.479 297.685 712.933 296.231C714.387 294.777 716.16 294.032 718.288 294.032C721.125 294.032 723.536 295.451 724.565 297.72L726.019 296.869C724.742 294.067 721.728 292.33 718.288 292.33C715.628 292.33 713.394 293.216 711.62 294.99C709.847 296.763 708.961 298.961 708.961 301.586C708.961 304.21 709.847 306.409 711.62 308.182C713.394 309.955 715.628 310.842 718.288 310.842ZM742.812 302.082C742.812 306.657 740.259 309.139 736.606 309.139C733.308 309.139 731.393 307.047 731.393 303.749V292.72H729.584V303.749C729.584 308.04 732.244 310.842 736.464 310.842C739.408 310.842 741.535 309.6 742.812 307.083V310.452H744.585V292.72H742.812V302.082ZM769 292.33C766.553 292.33 764.319 293.536 763.078 295.947C762.191 293.642 760.134 292.33 757.545 292.33C754.957 292.33 753.077 293.465 751.836 295.77V292.72H750.063V310.452H751.836V300.557C751.836 296.266 754.212 294.032 757.333 294.032C760.134 294.032 761.872 295.912 761.872 299.21V310.452H763.645V300.557C763.645 296.195 765.808 294.032 768.965 294.032C771.802 294.032 773.681 295.912 773.681 299.21V310.452H775.454V299.21C775.454 294.848 772.866 292.33 769 292.33ZM781.675 297.366C781.675 295.344 783.52 294.032 785.931 294.032C787.952 294.032 789.761 294.99 790.47 296.727L791.96 295.876C790.967 293.713 788.768 292.33 785.931 292.33C784.158 292.33 782.704 292.826 781.569 293.784C780.47 294.741 779.902 295.947 779.902 297.366C779.902 301.089 783.768 301.834 786.853 302.579C788.981 303.04 790.648 304.068 790.648 305.806C790.648 307.934 788.733 309.139 786.073 309.139C783.413 309.139 781.534 307.969 780.86 306.019L779.335 306.905C780.221 309.281 782.668 310.842 786.073 310.842C789.867 310.842 792.421 308.749 792.421 305.806C792.421 302.011 788.555 301.231 785.47 300.557C783.342 300.025 781.675 299.103 781.675 297.366ZM811.797 296.727C810.272 293.997 807.541 292.33 804.172 292.33C801.654 292.33 799.491 293.216 797.682 295.025C795.874 296.798 794.987 298.997 794.987 301.586C794.987 304.175 795.874 306.373 797.682 308.182C799.491 309.955 801.654 310.842 804.172 310.842C807.541 310.842 810.272 309.175 811.797 306.444V310.452H813.605V292.72H811.797V296.727ZM798.959 306.941C797.505 305.487 796.796 303.678 796.796 301.586C796.796 299.493 797.505 297.685 798.959 296.231C800.413 294.777 802.221 294.032 804.314 294.032C806.406 294.032 808.179 294.777 809.633 296.231C811.087 297.685 811.797 299.493 811.797 301.586C811.797 303.678 811.087 305.487 809.633 306.941C808.179 308.395 806.406 309.139 804.314 309.139C802.221 309.139 800.413 308.395 798.959 306.941ZM827.171 292.33C824.228 292.33 822.1 293.571 820.823 296.089V292.72H819.05V310.452H820.823V301.089C820.823 296.514 823.377 294.032 827.029 294.032C830.327 294.032 832.242 296.124 832.242 299.422V310.452H834.051V299.422C834.051 295.131 831.391 292.33 827.171 292.33ZM850.295 292.72H848.522V310.452H850.295V300.593C850.295 296.337 852.848 294.174 856.217 294.174V292.472C853.345 292.472 851.359 293.713 850.295 296.195V292.72ZM859.28 287.01C859.209 288.854 862.188 288.854 862.117 287.01C862.188 285.237 859.209 285.237 859.28 287.01ZM861.585 310.452V292.72H859.812V310.452H861.585ZM868.256 297.366C868.256 295.344 870.1 294.032 872.512 294.032C874.533 294.032 876.342 294.99 877.051 296.727L878.54 295.876C877.547 293.713 875.349 292.33 872.512 292.33C870.738 292.33 869.284 292.826 868.15 293.784C867.05 294.741 866.483 295.947 866.483 297.366C866.483 301.089 870.348 301.834 873.434 302.579C875.561 303.04 877.228 304.068 877.228 305.806C877.228 307.934 875.313 309.139 872.653 309.139C869.994 309.139 868.114 307.969 867.44 306.019L865.915 306.905C866.802 309.281 869.249 310.842 872.653 310.842C876.448 310.842 879.001 308.749 879.001 305.806C879.001 302.011 875.136 301.231 872.051 300.557C869.923 300.025 868.256 299.103 868.256 297.366ZM895.886 302.082C895.886 306.657 893.333 309.139 889.68 309.139C886.382 309.139 884.467 307.047 884.467 303.749V292.72H882.659V303.749C882.659 308.04 885.318 310.842 889.538 310.842C892.482 310.842 894.61 309.6 895.886 307.083V310.452H897.66V292.72H895.886V302.082ZM904.343 297.366C904.343 295.344 906.187 294.032 908.598 294.032C910.62 294.032 912.428 294.99 913.138 296.727L914.627 295.876C913.634 293.713 911.435 292.33 908.598 292.33C906.825 292.33 905.371 292.826 904.236 293.784C903.137 294.741 902.57 295.947 902.57 297.366C902.57 301.089 906.435 301.834 909.52 302.579C911.648 303.04 913.315 304.068 913.315 305.806C913.315 307.934 911.4 309.139 908.74 309.139C906.08 309.139 904.201 307.969 903.527 306.019L902.002 306.905C902.889 309.281 905.336 310.842 908.74 310.842C912.535 310.842 915.088 308.749 915.088 305.806C915.088 302.011 911.223 301.231 908.137 300.557C906.009 300.025 904.343 299.103 904.343 297.366ZM919.849 308.04L918.501 315.416H920.133L922.048 308.04H919.849ZM203.182 335.33C200.487 335.33 198.288 336.216 196.551 337.99C194.849 339.727 193.997 341.926 193.997 344.586C193.997 347.281 194.884 349.515 196.622 351.253C198.359 352.991 200.594 353.842 203.324 353.842C206.764 353.842 209.601 352.281 211.055 349.834L209.495 348.912C208.396 350.863 206.197 352.139 203.36 352.139C201.338 352.139 199.601 351.537 198.218 350.331C196.834 349.09 196.054 347.494 195.841 345.508H211.906C211.906 345.33 211.942 344.834 211.942 344.657C211.942 342.139 211.126 339.94 209.495 338.096C207.899 336.252 205.771 335.33 203.182 335.33ZM203.182 337.032C204.991 337.032 206.516 337.635 207.828 338.841C209.14 340.011 209.92 341.678 210.098 343.77H195.841C196.019 341.784 196.799 340.153 198.147 338.912C199.494 337.67 201.161 337.032 203.182 337.032ZM231.832 339.834C230.378 337.032 227.576 335.33 224.207 335.33C221.654 335.33 219.491 336.216 217.682 338.025C215.909 339.798 215.022 341.997 215.022 344.586C215.022 347.175 215.909 349.373 217.682 351.182C219.491 352.955 221.654 353.842 224.207 353.842C227.576 353.842 230.378 352.139 231.832 349.338V352.6C231.832 356.679 229.172 359.232 224.775 359.232C221.37 359.232 219.101 358.097 217.966 355.792L216.406 356.679C217.718 359.338 220.697 360.934 224.775 360.934C227.293 360.934 229.421 360.19 231.087 358.7C232.754 357.211 233.605 355.189 233.605 352.6V335.72H231.832V339.834ZM218.959 349.941C217.505 348.487 216.796 346.678 216.796 344.586C216.796 342.493 217.505 340.685 218.959 339.231C220.413 337.777 222.222 337.032 224.314 337.032C226.406 337.032 228.179 337.777 229.633 339.231C231.087 340.685 231.832 342.493 231.832 344.586C231.832 346.678 231.087 348.487 229.633 349.941C228.179 351.395 226.406 352.139 224.314 352.139C222.222 352.139 220.413 351.395 218.959 349.941ZM247.061 335.33C244.366 335.33 242.167 336.216 240.43 337.99C238.727 339.727 237.876 341.926 237.876 344.586C237.876 347.281 238.763 349.515 240.501 351.253C242.238 352.991 244.473 353.842 247.203 353.842C250.643 353.842 253.48 352.281 254.934 349.834L253.374 348.912C252.274 350.863 250.076 352.139 247.239 352.139C245.217 352.139 243.48 351.537 242.097 350.331C240.713 349.09 239.933 347.494 239.72 345.508H255.785C255.785 345.33 255.821 344.834 255.821 344.657C255.821 342.139 255.005 339.94 253.374 338.096C251.778 336.252 249.65 335.33 247.061 335.33ZM247.061 337.032C248.87 337.032 250.395 337.635 251.707 338.841C253.019 340.011 253.799 341.678 253.977 343.77H239.72C239.898 341.784 240.678 340.153 242.026 338.912C243.373 337.67 245.04 337.032 247.061 337.032ZM268.524 335.72H263.24V330.755L261.432 331.287V335.72H257.531V337.458H261.432V348.983C261.432 352.92 263.737 354.161 268.524 353.452V351.856C264.907 352.21 263.24 352.068 263.24 348.983V337.458H268.524V335.72ZM283.44 340.366C283.44 338.344 285.284 337.032 287.695 337.032C289.717 337.032 291.525 337.99 292.234 339.727L293.724 338.876C292.731 336.713 290.532 335.33 287.695 335.33C285.922 335.33 284.468 335.826 283.333 336.784C282.234 337.741 281.666 338.947 281.666 340.366C281.666 344.089 285.532 344.834 288.617 345.579C290.745 346.04 292.412 347.068 292.412 348.806C292.412 350.934 290.497 352.139 287.837 352.139C285.177 352.139 283.298 350.969 282.624 349.019L281.099 349.905C281.986 352.281 284.433 353.842 287.837 353.842C291.632 353.842 294.185 351.749 294.185 348.806C294.185 345.011 290.319 344.231 287.234 343.557C285.106 343.025 283.44 342.103 283.44 340.366ZM305.936 335.33C303.241 335.33 301.042 336.216 299.304 337.99C297.602 339.727 296.751 341.926 296.751 344.586C296.751 347.281 297.638 349.515 299.375 351.253C301.113 352.991 303.347 353.842 306.078 353.842C309.518 353.842 312.355 352.281 313.809 349.834L312.249 348.912C311.149 350.863 308.95 352.139 306.113 352.139C304.092 352.139 302.354 351.537 300.971 350.331C299.588 349.09 298.808 347.494 298.595 345.508H314.66C314.66 345.33 314.696 344.834 314.696 344.657C314.696 342.139 313.88 339.94 312.249 338.096C310.653 336.252 308.525 335.33 305.936 335.33ZM305.936 337.032C307.745 337.032 309.27 337.635 310.582 338.841C311.894 340.011 312.674 341.678 312.851 343.77H298.595C298.773 341.784 299.553 340.153 300.9 338.912C302.248 337.67 303.915 337.032 305.936 337.032ZM337.777 335.33C335.331 335.33 333.096 336.536 331.855 338.947C330.969 336.642 328.912 335.33 326.323 335.33C323.734 335.33 321.854 336.465 320.613 338.77V335.72H318.84V353.452H320.613V343.557C320.613 339.266 322.989 337.032 326.11 337.032C328.912 337.032 330.649 338.912 330.649 342.21V353.452H332.423V343.557C332.423 339.195 334.586 337.032 337.742 337.032C340.579 337.032 342.459 338.912 342.459 342.21V353.452H344.232V342.21C344.232 337.848 341.643 335.33 337.777 335.33ZM358.645 335.33C355.276 335.33 352.474 337.032 351.02 339.834V335.72H349.247V360.544H351.02V349.338C352.474 352.139 355.276 353.842 358.645 353.842C361.198 353.842 363.362 352.955 365.135 351.182C366.943 349.373 367.83 347.175 367.83 344.586C367.83 341.997 366.943 339.798 365.135 338.025C363.362 336.216 361.198 335.33 358.645 335.33ZM353.184 349.941C351.73 348.487 351.02 346.678 351.02 344.586C351.02 342.493 351.73 340.685 353.184 339.231C354.638 337.777 356.446 337.032 358.538 337.032C360.631 337.032 362.404 337.777 363.858 339.231C365.312 340.685 366.057 342.493 366.057 344.586C366.057 346.678 365.312 348.487 363.858 349.941C362.404 351.395 360.631 352.139 358.538 352.139C356.446 352.139 354.638 351.395 353.184 349.941ZM380.084 335.33C377.388 335.33 375.19 336.216 373.452 337.99C371.75 339.727 370.899 341.926 370.899 344.586C370.899 347.281 371.785 349.515 373.523 351.253C375.261 352.991 377.495 353.842 380.225 353.842C383.665 353.842 386.502 352.281 387.956 349.834L386.396 348.912C385.297 350.863 383.098 352.139 380.261 352.139C378.24 352.139 376.502 351.537 375.119 350.331C373.736 349.09 372.955 347.494 372.743 345.508H388.808C388.808 345.33 388.843 344.834 388.843 344.657C388.843 342.139 388.027 339.94 386.396 338.096C384.8 336.252 382.672 335.33 380.084 335.33ZM380.084 337.032C381.892 337.032 383.417 337.635 384.729 338.841C386.041 340.011 386.822 341.678 386.999 343.77H372.743C372.92 341.784 373.7 340.153 375.048 338.912C376.395 337.67 378.062 337.032 380.084 337.032ZM394.761 335.72H392.988V353.452H394.761V343.593C394.761 339.337 397.314 337.174 400.683 337.174V335.472C397.811 335.472 395.825 336.713 394.761 339.195V335.72ZM414.938 340.366C414.938 338.344 416.782 337.032 419.194 337.032C421.215 337.032 423.024 337.99 423.733 339.727L425.222 338.876C424.229 336.713 422.031 335.33 419.194 335.33C417.42 335.33 415.966 335.826 414.832 336.784C413.732 337.741 413.165 338.947 413.165 340.366C413.165 344.089 417.03 344.834 420.116 345.579C422.243 346.04 423.91 347.068 423.91 348.806C423.91 350.934 421.995 352.139 419.335 352.139C416.676 352.139 414.796 350.969 414.122 349.019L412.597 349.905C413.484 352.281 415.931 353.842 419.335 353.842C423.13 353.842 425.683 351.749 425.683 348.806C425.683 345.011 421.818 344.231 418.733 343.557C416.605 343.025 414.938 342.103 414.938 340.366ZM437.434 335.33C434.739 335.33 432.541 336.216 430.803 337.99C429.101 339.727 428.249 341.926 428.249 344.586C428.249 347.281 429.136 349.515 430.874 351.253C432.611 352.991 434.846 353.842 437.576 353.842C441.016 353.842 443.853 352.281 445.307 349.834L443.747 348.912C442.648 350.863 440.449 352.139 437.612 352.139C435.59 352.139 433.853 351.537 432.47 350.331C431.087 349.09 430.306 347.494 430.094 345.508H446.158C446.158 345.33 446.194 344.834 446.194 344.657C446.194 342.139 445.378 339.94 443.747 338.096C442.151 336.252 440.023 335.33 437.434 335.33ZM437.434 337.032C439.243 337.032 440.768 337.635 442.08 338.841C443.392 340.011 444.173 341.678 444.35 343.77H430.094C430.271 341.784 431.051 340.153 432.399 338.912C433.746 337.67 435.413 337.032 437.434 337.032ZM469.276 335.33C466.829 335.33 464.595 336.536 463.354 338.947C462.467 336.642 460.41 335.33 457.821 335.33C455.232 335.33 453.353 336.465 452.112 338.77V335.72H450.338V353.452H452.112V343.557C452.112 339.266 454.488 337.032 457.608 337.032C460.41 337.032 462.148 338.912 462.148 342.21V353.452H463.921V343.557C463.921 339.195 466.084 337.032 469.24 337.032C472.078 337.032 473.957 338.912 473.957 342.21V353.452H475.73V342.21C475.73 337.848 473.141 335.33 469.276 335.33ZM482.944 353.345C483.547 352.742 483.547 351.678 482.944 351.075C482.341 350.473 481.277 350.473 480.675 351.075C480.072 351.678 480.072 352.742 480.675 353.345C481.277 353.948 482.341 353.948 482.944 353.345ZM511.864 328.627H498.105V353.452H499.984V342.103H511.439V340.33H499.984V330.4H511.864V328.627ZM528.872 345.082C528.872 349.657 526.318 352.139 522.666 352.139C519.368 352.139 517.453 350.047 517.453 346.749V335.72H515.644V346.749C515.644 351.04 518.304 353.842 522.524 353.842C525.467 353.842 527.595 352.6 528.872 350.083V353.452H530.645V335.72H528.872V345.082ZM537.328 340.366C537.328 338.344 539.172 337.032 541.584 337.032C543.605 337.032 545.414 337.99 546.123 339.727L547.612 338.876C546.62 336.713 544.421 335.33 541.584 335.33C539.811 335.33 538.357 335.826 537.222 336.784C536.122 337.741 535.555 338.947 535.555 340.366C535.555 344.089 539.42 344.834 542.506 345.579C544.634 346.04 546.3 347.068 546.3 348.806C546.3 350.934 544.385 352.139 541.726 352.139C539.066 352.139 537.186 350.969 536.512 349.019L534.988 349.905C535.874 352.281 538.321 353.842 541.726 353.842C545.52 353.842 548.074 351.749 548.074 348.806C548.074 345.011 544.208 344.231 541.123 343.557C538.995 343.025 537.328 342.103 537.328 340.366ZM559.966 353.842C563.406 353.842 566.421 352.068 567.839 349.338L566.35 348.451C565.18 350.721 562.804 352.139 559.966 352.139C557.839 352.139 556.066 351.43 554.612 349.976C553.158 348.522 552.448 346.713 552.448 344.586C552.448 342.458 553.158 340.685 554.612 339.231C556.066 337.777 557.839 337.032 559.966 337.032C562.804 337.032 565.215 338.451 566.243 340.72L567.697 339.869C566.421 337.067 563.406 335.33 559.966 335.33C557.307 335.33 555.073 336.216 553.299 337.99C551.526 339.763 550.64 341.961 550.64 344.586C550.64 347.21 551.526 349.409 553.299 351.182C555.073 352.955 557.307 353.842 559.966 353.842ZM579.53 335.33C576.835 335.33 574.636 336.216 572.899 337.99C571.196 339.727 570.345 341.926 570.345 344.586C570.345 347.281 571.232 349.515 572.97 351.253C574.707 352.991 576.942 353.842 579.672 353.842C583.112 353.842 585.949 352.281 587.403 349.834L585.843 348.912C584.743 350.863 582.545 352.139 579.708 352.139C577.686 352.139 575.949 351.537 574.565 350.331C573.182 349.09 572.402 347.494 572.189 345.508H588.254C588.254 345.33 588.29 344.834 588.29 344.657C588.29 342.139 587.474 339.94 585.843 338.096C584.247 336.252 582.119 335.33 579.53 335.33ZM579.53 337.032C581.339 337.032 582.864 337.635 584.176 338.841C585.488 340.011 586.268 341.678 586.446 343.77H572.189C572.367 341.784 573.147 340.153 574.495 338.912C575.842 337.67 577.509 337.032 579.53 337.032ZM609.868 335.33C607.173 335.33 604.974 336.216 603.236 337.99C601.534 339.727 600.683 341.926 600.683 344.586C600.683 347.281 601.57 349.515 603.307 351.253C605.045 352.991 607.279 353.842 610.01 353.842C613.45 353.842 616.287 352.281 617.741 349.834L616.181 348.912C615.081 350.863 612.883 352.139 610.045 352.139C608.024 352.139 606.286 351.537 604.903 350.331C603.52 349.09 602.74 347.494 602.527 345.508H618.592C618.592 345.33 618.628 344.834 618.628 344.657C618.628 342.139 617.812 339.94 616.181 338.096C614.585 336.252 612.457 335.33 609.868 335.33ZM609.868 337.032C611.677 337.032 613.202 337.635 614.514 338.841C615.826 340.011 616.606 341.678 616.783 343.77H602.527C602.705 341.784 603.485 340.153 604.832 338.912C606.18 337.67 607.847 337.032 609.868 337.032ZM631.331 335.72H626.047V330.755L624.239 331.287V335.72H620.338V337.458H624.239V348.983C624.239 352.92 626.544 354.161 631.331 353.452V351.856C627.714 352.21 626.047 352.068 626.047 348.983V337.458H631.331V335.72ZM660.644 339.727C659.12 336.997 656.389 335.33 653.02 335.33C650.502 335.33 648.339 336.216 646.53 338.025C644.721 339.798 643.835 341.997 643.835 344.586C643.835 347.175 644.721 349.373 646.53 351.182C648.339 352.955 650.502 353.842 653.02 353.842C656.389 353.842 659.12 352.175 660.644 349.444V353.452H662.453V335.72H660.644V339.727ZM647.807 349.941C646.353 348.487 645.643 346.678 645.643 344.586C645.643 342.493 646.353 340.685 647.807 339.231C649.261 337.777 651.069 337.032 653.162 337.032C655.254 337.032 657.027 337.777 658.481 339.231C659.935 340.685 660.644 342.493 660.644 344.586C660.644 346.678 659.935 348.487 658.481 349.941C657.027 351.395 655.254 352.139 653.162 352.139C651.069 352.139 649.261 351.395 647.807 349.941ZM676.019 335.33C673.075 335.33 670.948 336.571 669.671 339.089V335.72H667.898V353.452H669.671V344.089C669.671 339.514 672.224 337.032 675.877 337.032C679.175 337.032 681.09 339.124 681.09 342.422V353.452H682.899V342.422C682.899 338.131 680.239 335.33 676.019 335.33ZM696.994 335.72H691.71V330.755L689.901 331.287V335.72H686V337.458H689.901V348.983C689.901 352.92 692.206 354.161 696.994 353.452V351.856C693.377 352.21 691.71 352.068 691.71 348.983V337.458H696.994V335.72ZM708.154 335.33C705.459 335.33 703.26 336.216 701.523 337.99C699.82 339.727 698.969 341.926 698.969 344.586C698.969 347.281 699.856 349.515 701.594 351.253C703.331 352.991 705.565 353.842 708.296 353.842C711.736 353.842 714.573 352.281 716.027 349.834L714.467 348.912C713.367 350.863 711.169 352.139 708.332 352.139C706.31 352.139 704.572 351.537 703.189 350.331C701.806 349.09 701.026 347.494 700.813 345.508H716.878C716.878 345.33 716.914 344.834 716.914 344.657C716.914 342.139 716.098 339.94 714.467 338.096C712.871 336.252 710.743 335.33 708.154 335.33ZM708.154 337.032C709.963 337.032 711.488 337.635 712.8 338.841C714.112 340.011 714.892 341.678 715.07 343.77H700.813C700.991 341.784 701.771 340.153 703.118 338.912C704.466 337.67 706.133 337.032 708.154 337.032ZM738.634 335.33C735.69 335.33 733.563 336.571 732.286 339.089V335.72H730.513V353.452H732.286V344.089C732.286 339.514 734.839 337.032 738.492 337.032C741.79 337.032 743.705 339.124 743.705 342.422V353.452H745.514V342.422C745.514 338.131 742.854 335.33 738.634 335.33ZM758.651 353.842C761.24 353.842 763.403 352.955 765.212 351.182C767.021 349.373 767.943 347.175 767.943 344.586C767.943 341.997 767.021 339.798 765.212 338.025C763.403 336.216 761.24 335.33 758.651 335.33C756.063 335.33 753.828 336.216 752.02 338.025C750.211 339.798 749.324 341.997 749.324 344.586C749.324 347.175 750.211 349.373 752.02 351.182C753.828 352.955 756.063 353.842 758.651 353.842ZM753.296 349.941C751.842 348.487 751.133 346.678 751.133 344.586C751.133 342.493 751.842 340.685 753.296 339.231C754.75 337.777 756.559 337.032 758.651 337.032C760.744 337.032 762.517 337.777 763.971 339.231C765.425 340.685 766.134 342.493 766.134 344.586C766.134 346.678 765.425 348.487 763.971 349.941C762.517 351.395 760.744 352.139 758.651 352.139C756.559 352.139 754.75 351.395 753.296 349.941ZM780.331 335.33C777.388 335.33 775.26 336.571 773.983 339.089V335.72H772.21V353.452H773.983V344.089C773.983 339.514 776.537 337.032 780.189 337.032C783.487 337.032 785.402 339.124 785.402 342.422V353.452H787.211V342.422C787.211 338.131 784.551 335.33 780.331 335.33ZM802.888 340.366C802.888 338.344 804.732 337.032 807.143 337.032C809.165 337.032 810.973 337.99 811.683 339.727L813.172 338.876C812.179 336.713 809.98 335.33 807.143 335.33C805.37 335.33 803.916 335.826 802.781 336.784C801.682 337.741 801.115 338.947 801.115 340.366C801.115 344.089 804.98 344.834 808.065 345.579C810.193 346.04 811.86 347.068 811.86 348.806C811.86 350.934 809.945 352.139 807.285 352.139C804.625 352.139 802.746 350.969 802.072 349.019L800.547 349.905C801.434 352.281 803.881 353.842 807.285 353.842C811.08 353.842 813.633 351.749 813.633 348.806C813.633 345.011 809.768 344.231 806.682 343.557C804.555 343.025 802.888 342.103 802.888 340.366ZM833.009 339.727C831.484 336.997 828.753 335.33 825.384 335.33C822.866 335.33 820.703 336.216 818.894 338.025C817.086 339.798 816.199 341.997 816.199 344.586C816.199 347.175 817.086 349.373 818.894 351.182C820.703 352.955 822.866 353.842 825.384 353.842C828.753 353.842 831.484 352.175 833.009 349.444V353.452H834.817V335.72H833.009V339.727ZM820.171 349.941C818.717 348.487 818.008 346.678 818.008 344.586C818.008 342.493 818.717 340.685 820.171 339.231C821.625 337.777 823.434 337.032 825.526 337.032C827.618 337.032 829.392 337.777 830.846 339.231C832.3 340.685 833.009 342.493 833.009 344.586C833.009 346.678 832.3 348.487 830.846 349.941C829.392 351.395 827.618 352.139 825.526 352.139C823.434 352.139 821.625 351.395 820.171 349.941ZM849.66 335.33C846.291 335.33 843.489 337.032 842.035 339.834V335.72H840.262V360.544H842.035V349.338C843.489 352.139 846.291 353.842 849.66 353.842C852.213 353.842 854.377 352.955 856.15 351.182C857.958 349.373 858.845 347.175 858.845 344.586C858.845 341.997 857.958 339.798 856.15 338.025C854.377 336.216 852.213 335.33 849.66 335.33ZM844.199 349.941C842.745 348.487 842.035 346.678 842.035 344.586C842.035 342.493 842.745 340.685 844.199 339.231C845.653 337.777 847.461 337.032 849.554 337.032C851.646 337.032 853.419 337.777 854.873 339.231C856.327 340.685 857.072 342.493 857.072 344.586C857.072 346.678 856.327 348.487 854.873 349.941C853.419 351.395 851.646 352.139 849.554 352.139C847.461 352.139 845.653 351.395 844.199 349.941ZM862.588 330.01C862.517 331.854 865.496 331.854 865.425 330.01C865.496 328.237 862.517 328.237 862.588 330.01ZM864.893 353.452V335.72H863.119V353.452H864.893ZM878.337 335.33C875.642 335.33 873.443 336.216 871.705 337.99C870.003 339.727 869.152 341.926 869.152 344.586C869.152 347.281 870.038 349.515 871.776 351.253C873.514 352.991 875.748 353.842 878.479 353.842C881.919 353.842 884.756 352.281 886.21 349.834L884.649 348.912C883.55 350.863 881.351 352.139 878.514 352.139C876.493 352.139 874.755 351.537 873.372 350.331C871.989 349.09 871.209 347.494 870.996 345.508H887.061C887.061 345.33 887.096 344.834 887.096 344.657C887.096 342.139 886.281 339.94 884.649 338.096C883.053 336.252 880.926 335.33 878.337 335.33ZM878.337 337.032C880.145 337.032 881.67 337.635 882.983 338.841C884.295 340.011 885.075 341.678 885.252 343.77H870.996C871.173 341.784 871.953 340.153 873.301 338.912C874.649 337.67 876.315 337.032 878.337 337.032ZM899.362 335.33C896.418 335.33 894.291 336.571 893.014 339.089V335.72H891.241V353.452H893.014V344.089C893.014 339.514 895.567 337.032 899.22 337.032C902.518 337.032 904.433 339.124 904.433 342.422V353.452H906.242V342.422C906.242 338.131 903.582 335.33 899.362 335.33ZM184.116 378.33C180.747 378.33 177.945 380.032 176.491 382.834V378.72H174.718V403.544H176.491V392.338C177.945 395.139 180.747 396.842 184.116 396.842C186.669 396.842 188.833 395.955 190.606 394.182C192.414 392.373 193.301 390.175 193.301 387.586C193.301 384.997 192.414 382.798 190.606 381.025C188.833 379.216 186.669 378.33 184.116 378.33ZM178.655 392.941C177.201 391.487 176.491 389.678 176.491 387.586C176.491 385.493 177.201 383.685 178.655 382.231C180.109 380.777 181.917 380.032 184.01 380.032C186.102 380.032 187.875 380.777 189.329 382.231C190.783 383.685 191.528 385.493 191.528 387.586C191.528 389.678 190.783 391.487 189.329 392.941C187.875 394.395 186.102 395.139 184.01 395.139C181.917 395.139 180.109 394.395 178.655 392.941ZM210.342 388.082C210.342 392.657 207.789 395.139 204.136 395.139C200.838 395.139 198.923 393.047 198.923 389.749V378.72H197.114V389.749C197.114 394.04 199.774 396.842 203.994 396.842C206.938 396.842 209.066 395.6 210.342 393.083V396.452H212.115V378.72H210.342V388.082ZM219.366 396.452V370.563H217.593V396.452H219.366ZM231.143 394.607L224.476 378.72H222.561L230.08 396.452H232.243L239.726 378.72H237.846L231.143 394.607ZM242.412 373.01C242.341 374.854 245.32 374.854 245.249 373.01C245.32 371.237 242.341 371.237 242.412 373.01ZM244.717 396.452V378.72H242.944V396.452H244.717ZM258.303 378.33C255.359 378.33 253.232 379.571 251.955 382.089V378.72H250.182V396.452H251.955V387.089C251.955 382.514 254.508 380.032 258.161 380.032C261.459 380.032 263.374 382.124 263.374 385.422V396.452H265.183V385.422C265.183 381.131 262.523 378.33 258.303 378.33ZM285.803 382.727C284.278 379.997 281.547 378.33 278.178 378.33C275.661 378.33 273.497 379.216 271.689 381.025C269.88 382.798 268.993 384.997 268.993 387.586C268.993 390.175 269.88 392.373 271.689 394.182C273.497 395.955 275.661 396.842 278.178 396.842C281.547 396.842 284.278 395.175 285.803 392.444V396.452H287.612V378.72H285.803V382.727ZM272.965 392.941C271.511 391.487 270.802 389.678 270.802 387.586C270.802 385.493 271.511 383.685 272.965 382.231C274.419 380.777 276.228 380.032 278.32 380.032C280.413 380.032 282.186 380.777 283.64 382.231C285.094 383.685 285.803 385.493 285.803 387.586C285.803 389.678 285.094 391.487 283.64 392.941C282.186 394.395 280.413 395.139 278.32 395.139C276.228 395.139 274.419 394.395 272.965 392.941ZM294.83 378.72H293.056V396.452H294.83V386.593C294.83 382.337 297.383 380.174 300.752 380.174V378.472C297.879 378.472 295.893 379.713 294.83 382.195V378.72ZM321.922 378.33C318.979 378.33 316.851 379.571 315.574 382.089V371.627H313.801V396.452H315.574V387.089C315.574 382.514 318.128 380.032 321.78 380.032C325.078 380.032 326.993 382.124 326.993 385.422V396.452H328.802V385.422C328.802 381.131 326.142 378.33 321.922 378.33ZM341.798 378.33C339.103 378.33 336.904 379.216 335.166 380.99C333.464 382.727 332.613 384.926 332.613 387.586C332.613 390.281 333.499 392.515 335.237 394.253C336.975 395.991 339.209 396.842 341.94 396.842C345.38 396.842 348.217 395.281 349.671 392.834L348.11 391.912C347.011 393.863 344.812 395.139 341.975 395.139C339.954 395.139 338.216 394.537 336.833 393.331C335.45 392.09 334.67 390.494 334.457 388.508H350.522C350.522 388.33 350.557 387.834 350.557 387.657C350.557 385.139 349.742 382.94 348.11 381.096C346.514 379.252 344.387 378.33 341.798 378.33ZM341.798 380.032C343.606 380.032 345.131 380.635 346.443 381.841C347.756 383.011 348.536 384.678 348.713 386.77H334.457C334.634 384.784 335.414 383.153 336.762 381.912C338.11 380.67 339.776 380.032 341.798 380.032ZM362.823 378.33C359.879 378.33 357.752 379.571 356.475 382.089V378.72H354.702V396.452H356.475V387.089C356.475 382.514 359.028 380.032 362.681 380.032C365.979 380.032 367.894 382.124 367.894 385.422V396.452H369.703V385.422C369.703 381.131 367.043 378.33 362.823 378.33ZM390.358 382.834C388.904 380.032 386.103 378.33 382.734 378.33C380.18 378.33 378.017 379.216 376.209 381.025C374.435 382.798 373.549 384.997 373.549 387.586C373.549 390.175 374.435 392.373 376.209 394.182C378.017 395.955 380.18 396.842 382.734 396.842C386.103 396.842 388.904 395.139 390.358 392.338V396.452H392.132V371.627H390.358V382.834ZM377.485 392.941C376.031 391.487 375.322 389.678 375.322 387.586C375.322 385.493 376.031 383.685 377.485 382.231C378.939 380.777 380.748 380.032 382.84 380.032C384.933 380.032 386.706 380.777 388.16 382.231C389.614 383.685 390.358 385.493 390.358 387.586C390.358 389.678 389.614 391.487 388.16 392.941C386.706 394.395 384.933 395.139 382.84 395.139C380.748 395.139 378.939 394.395 377.485 392.941ZM399.35 378.72H397.576V396.452H399.35V386.593C399.35 382.337 401.903 380.174 405.272 380.174V378.472C402.399 378.472 400.413 379.713 399.35 382.195V378.72ZM415.772 378.33C413.077 378.33 410.878 379.216 409.14 380.99C407.438 382.727 406.587 384.926 406.587 387.586C406.587 390.281 407.474 392.515 409.211 394.253C410.949 395.991 413.183 396.842 415.914 396.842C419.354 396.842 422.191 395.281 423.645 392.834L422.085 391.912C420.985 393.863 418.786 395.139 415.949 395.139C413.928 395.139 412.19 394.537 410.807 393.331C409.424 392.09 408.644 390.494 408.431 388.508H424.496C424.496 388.33 424.532 387.834 424.532 387.657C424.532 385.139 423.716 382.94 422.085 381.096C420.489 379.252 418.361 378.33 415.772 378.33ZM415.772 380.032C417.581 380.032 419.106 380.635 420.418 381.841C421.73 383.011 422.51 384.678 422.687 386.77H408.431C408.608 384.784 409.389 383.153 410.736 381.912C412.084 380.67 413.751 380.032 415.772 380.032ZM430.449 378.72H428.676V396.452H430.449V386.593C430.449 382.337 433.003 380.174 436.372 380.174V378.472C433.499 378.472 431.513 379.713 430.449 382.195V378.72ZM439.434 373.01C439.363 374.854 442.342 374.854 442.271 373.01C442.342 371.237 439.363 371.237 439.434 373.01ZM441.739 396.452V378.72H439.966V396.452H441.739ZM456.283 378.72H450.999V373.755L449.19 374.287V378.72H445.289V380.458H449.19V391.983C449.19 395.92 451.495 397.161 456.283 396.452V394.856C452.666 395.21 450.999 395.068 450.999 391.983V380.458H456.283V378.72ZM462.736 396.345C463.339 395.742 463.339 394.678 462.736 394.075C462.134 393.473 461.07 393.473 460.467 394.075C459.864 394.678 459.864 395.742 460.467 396.345C461.07 396.948 462.134 396.948 462.736 396.345ZM486.514 396.452L495.77 371.627H493.749L485.521 394.005L477.329 371.627H475.272L484.528 396.452H486.514ZM504.881 378.33C502.185 378.33 499.987 379.216 498.249 380.99C496.547 382.727 495.696 384.926 495.696 387.586C495.696 390.281 496.582 392.515 498.32 394.253C500.058 395.991 502.292 396.842 505.023 396.842C508.462 396.842 511.3 395.281 512.754 392.834L511.193 391.912C510.094 393.863 507.895 395.139 505.058 395.139C503.037 395.139 501.299 394.537 499.916 393.331C498.533 392.09 497.753 390.494 497.54 388.508H513.605C513.605 388.33 513.64 387.834 513.64 387.657C513.64 385.139 512.824 382.94 511.193 381.096C509.597 379.252 507.47 378.33 504.881 378.33ZM504.881 380.032C506.689 380.032 508.214 380.635 509.526 381.841C510.839 383.011 511.619 384.678 511.796 386.77H497.54C497.717 384.784 498.497 383.153 499.845 381.912C501.192 380.67 502.859 380.032 504.881 380.032ZM518.298 383.366C518.298 381.344 520.142 380.032 522.553 380.032C524.575 380.032 526.383 380.99 527.093 382.727L528.582 381.876C527.589 379.713 525.39 378.33 522.553 378.33C520.78 378.33 519.326 378.826 518.191 379.784C517.092 380.741 516.525 381.947 516.525 383.366C516.525 387.089 520.39 387.834 523.475 388.579C525.603 389.04 527.27 390.068 527.27 391.806C527.27 393.934 525.355 395.139 522.695 395.139C520.035 395.139 518.156 393.969 517.482 392.019L515.957 392.905C516.844 395.281 519.291 396.842 522.695 396.842C526.49 396.842 529.043 394.749 529.043 391.806C529.043 388.011 525.178 387.231 522.092 386.557C519.965 386.025 518.298 385.103 518.298 383.366ZM541.72 378.72H536.436V373.755L534.628 374.287V378.72H530.727V380.458H534.628V391.983C534.628 395.92 536.933 397.161 541.72 396.452V394.856C538.103 395.21 536.436 395.068 536.436 391.983V380.458H541.72V378.72ZM545.443 373.01C545.372 374.854 548.351 374.854 548.28 373.01C548.351 371.237 545.372 371.237 545.443 373.01ZM547.748 396.452V378.72H545.975V396.452H547.748ZM562.611 378.33C559.242 378.33 556.441 380.032 554.987 382.834V371.627H553.213V396.452H554.987V392.338C556.441 395.139 559.242 396.842 562.611 396.842C565.165 396.842 567.328 395.955 569.101 394.182C570.91 392.373 571.796 390.175 571.796 387.586C571.796 384.997 570.91 382.798 569.101 381.025C567.328 379.216 565.165 378.33 562.611 378.33ZM557.15 392.941C555.696 391.487 554.987 389.678 554.987 387.586C554.987 385.493 555.696 383.685 557.15 382.231C558.604 380.777 560.412 380.032 562.505 380.032C564.597 380.032 566.37 380.777 567.824 382.231C569.278 383.685 570.023 385.493 570.023 387.586C570.023 389.678 569.278 391.487 567.824 392.941C566.37 394.395 564.597 395.139 562.505 395.139C560.412 395.139 558.604 394.395 557.15 392.941ZM588.837 388.082C588.837 392.657 586.284 395.139 582.631 395.139C579.333 395.139 577.418 393.047 577.418 389.749V378.72H575.61V389.749C575.61 394.04 578.269 396.842 582.489 396.842C585.433 396.842 587.561 395.6 588.837 393.083V396.452H590.611V378.72H588.837V388.082ZM597.861 396.452V370.563H596.088V396.452H597.861ZM616.093 388.082C616.093 392.657 613.54 395.139 609.887 395.139C606.589 395.139 604.674 393.047 604.674 389.749V378.72H602.865V389.749C602.865 394.04 605.525 396.842 609.745 396.842C612.688 396.842 614.816 395.6 616.093 393.083V396.452H617.866V378.72H616.093V388.082ZM642.281 378.33C639.834 378.33 637.6 379.536 636.359 381.947C635.472 379.642 633.415 378.33 630.826 378.33C628.237 378.33 626.358 379.465 625.117 381.77V378.72H623.344V396.452H625.117V386.557C625.117 382.266 627.493 380.032 630.614 380.032C633.415 380.032 635.153 381.912 635.153 385.21V396.452H636.926V386.557C636.926 382.195 639.089 380.032 642.246 380.032C645.083 380.032 646.962 381.912 646.962 385.21V396.452H648.735V385.21C648.735 380.848 646.146 378.33 642.281 378.33ZM671.575 371.237C667 370.918 664.482 373.329 664.482 377.762V378.72H661.432V380.458H664.482V396.452H666.29V380.458H671.575V378.72H666.29V377.762C666.29 374.251 668.064 372.656 671.575 372.939V371.237ZM688.748 382.727C687.224 379.997 684.493 378.33 681.124 378.33C678.606 378.33 676.443 379.216 674.634 381.025C672.825 382.798 671.939 384.997 671.939 387.586C671.939 390.175 672.825 392.373 674.634 394.182C676.443 395.955 678.606 396.842 681.124 396.842C684.493 396.842 687.224 395.175 688.748 392.444V396.452H690.557V378.72H688.748V382.727ZM675.911 392.941C674.457 391.487 673.747 389.678 673.747 387.586C673.747 385.493 674.457 383.685 675.911 382.231C677.365 380.777 679.173 380.032 681.266 380.032C683.358 380.032 685.131 380.777 686.585 382.231C688.039 383.685 688.748 385.493 688.748 387.586C688.748 389.678 688.039 391.487 686.585 392.941C685.131 394.395 683.358 395.139 681.266 395.139C679.173 395.139 677.365 394.395 675.911 392.941ZM704.123 396.842C707.563 396.842 710.577 395.068 711.996 392.338L710.506 391.451C709.336 393.721 706.96 395.139 704.123 395.139C701.995 395.139 700.222 394.43 698.768 392.976C697.314 391.522 696.605 389.713 696.605 387.586C696.605 385.458 697.314 383.685 698.768 382.231C700.222 380.777 701.995 380.032 704.123 380.032C706.96 380.032 709.372 381.451 710.4 383.72L711.854 382.869C710.577 380.067 707.563 378.33 704.123 378.33C701.463 378.33 699.229 379.216 697.456 380.99C695.683 382.763 694.796 384.961 694.796 387.586C694.796 390.21 695.683 392.409 697.456 394.182C699.229 395.955 701.463 396.842 704.123 396.842ZM715.349 373.01C715.278 374.854 718.257 374.854 718.186 373.01C718.257 371.237 715.278 371.237 715.349 373.01ZM717.654 396.452V378.72H715.881V396.452H717.654ZM724.892 396.452V370.563H723.119V396.452H724.892ZM729.825 373.01C729.754 374.854 732.733 374.854 732.662 373.01C732.733 371.237 729.754 371.237 729.825 373.01ZM732.13 396.452V378.72H730.357V396.452H732.13ZM738.801 383.366C738.801 381.344 740.645 380.032 743.056 380.032C745.078 380.032 746.887 380.99 747.596 382.727L749.085 381.876C748.092 379.713 745.894 378.33 743.056 378.33C741.283 378.33 739.829 378.826 738.694 379.784C737.595 380.741 737.028 381.947 737.028 383.366C737.028 387.089 740.893 387.834 743.979 388.579C746.106 389.04 747.773 390.068 747.773 391.806C747.773 393.934 745.858 395.139 743.198 395.139C740.539 395.139 738.659 393.969 737.985 392.019L736.46 392.905C737.347 395.281 739.794 396.842 743.198 396.842C746.993 396.842 749.546 394.749 749.546 391.806C749.546 388.011 745.681 387.231 742.595 386.557C740.468 386.025 738.801 385.103 738.801 383.366ZM753.133 373.01C753.062 374.854 756.041 374.854 755.97 373.01C756.041 371.237 753.062 371.237 753.133 373.01ZM755.438 396.452V378.72H753.664V396.452H755.438ZM762.108 383.366C762.108 381.344 763.952 380.032 766.364 380.032C768.385 380.032 770.194 380.99 770.903 382.727L772.393 381.876C771.4 379.713 769.201 378.33 766.364 378.33C764.591 378.33 763.137 378.826 762.002 379.784C760.903 380.741 760.335 381.947 760.335 383.366C760.335 387.089 764.201 387.834 767.286 388.579C769.414 389.04 771.081 390.068 771.081 391.806C771.081 393.934 769.166 395.139 766.506 395.139C763.846 395.139 761.966 393.969 761.293 392.019L759.768 392.905C760.654 395.281 763.101 396.842 766.506 396.842C770.3 396.842 772.854 394.749 772.854 391.806C772.854 388.011 768.988 387.231 765.903 386.557C763.775 386.025 762.108 385.103 762.108 383.366ZM805.537 378.33C803.09 378.33 800.856 379.536 799.615 381.947C798.728 379.642 796.671 378.33 794.082 378.33C791.494 378.33 789.614 379.465 788.373 381.77V378.72H786.6V396.452H788.373V386.557C788.373 382.266 790.749 380.032 793.87 380.032C796.671 380.032 798.409 381.912 798.409 385.21V396.452H800.182V386.557C800.182 382.195 802.345 380.032 805.502 380.032C808.339 380.032 810.218 381.912 810.218 385.21V396.452H811.991V385.21C811.991 380.848 809.403 378.33 805.537 378.33ZM832.611 382.727C831.086 379.997 828.355 378.33 824.986 378.33C822.468 378.33 820.305 379.216 818.496 381.025C816.688 382.798 815.801 384.997 815.801 387.586C815.801 390.175 816.688 392.373 818.496 394.182C820.305 395.955 822.468 396.842 824.986 396.842C828.355 396.842 831.086 395.175 832.611 392.444V396.452H834.419V378.72H832.611V382.727ZM819.773 392.941C818.319 391.487 817.61 389.678 817.61 387.586C817.61 385.493 818.319 383.685 819.773 382.231C821.227 380.777 823.035 380.032 825.128 380.032C827.22 380.032 828.993 380.777 830.447 382.231C831.901 383.685 832.611 385.493 832.611 387.586C832.611 389.678 831.901 391.487 830.447 392.941C828.993 394.395 827.22 395.139 825.128 395.139C823.035 395.139 821.227 394.395 819.773 392.941ZM847.205 387.302L853.836 378.72H851.709L846.105 385.919L840.538 378.72H838.374L845.042 387.337L837.949 396.452H840.112L846.105 388.721L852.099 396.452H854.262L847.205 387.302ZM857.306 373.01C857.235 374.854 860.214 374.854 860.143 373.01C860.214 371.237 857.235 371.237 857.306 373.01ZM859.611 396.452V378.72H857.838V396.452H859.611ZM884.014 378.33C881.567 378.33 879.332 379.536 878.091 381.947C877.205 379.642 875.148 378.33 872.559 378.33C869.97 378.33 868.091 379.465 866.849 381.77V378.72H865.076V396.452H866.849V386.557C866.849 382.266 869.225 380.032 872.346 380.032C875.148 380.032 876.885 381.912 876.885 385.21V396.452H878.659V386.557C878.659 382.195 880.822 380.032 883.978 380.032C886.815 380.032 888.695 381.912 888.695 385.21V396.452H890.468V385.21C890.468 380.848 887.879 378.33 884.014 378.33ZM908.25 388.082C908.25 392.657 905.697 395.139 902.044 395.139C898.746 395.139 896.831 393.047 896.831 389.749V378.72H895.022V389.749C895.022 394.04 897.682 396.842 901.902 396.842C904.846 396.842 906.973 395.6 908.25 393.083V396.452H910.023V378.72H908.25V388.082ZM916.706 383.366C916.706 381.344 918.55 380.032 920.962 380.032C922.983 380.032 924.792 380.99 925.501 382.727L926.991 381.876C925.998 379.713 923.799 378.33 920.962 378.33C919.189 378.33 917.735 378.826 916.6 379.784C915.501 380.741 914.933 381.947 914.933 383.366C914.933 387.089 918.799 387.834 921.884 388.579C924.012 389.04 925.679 390.068 925.679 391.806C925.679 393.934 923.764 395.139 921.104 395.139C918.444 395.139 916.565 393.969 915.891 392.019L914.366 392.905C915.252 395.281 917.699 396.842 921.104 396.842C924.898 396.842 927.452 394.749 927.452 391.806C927.452 388.011 923.586 387.231 920.501 386.557C918.373 386.025 916.706 385.103 916.706 383.366ZM393.479 439.452V413.563H391.706V439.452H393.479ZM406.924 421.33C404.228 421.33 402.03 422.216 400.292 423.99C398.59 425.727 397.739 427.926 397.739 430.586C397.739 433.281 398.625 435.515 400.363 437.253C402.101 438.991 404.335 439.842 407.065 439.842C410.505 439.842 413.342 438.281 414.796 435.834L413.236 434.912C412.137 436.863 409.938 438.139 407.101 438.139C405.079 438.139 403.342 437.537 401.959 436.331C400.576 435.09 399.795 433.494 399.583 431.508H415.648C415.648 431.33 415.683 430.834 415.683 430.657C415.683 428.139 414.867 425.94 413.236 424.096C411.64 422.252 409.512 421.33 406.924 421.33ZM406.924 423.032C408.732 423.032 410.257 423.635 411.569 424.841C412.881 426.011 413.662 427.678 413.839 429.77H399.583C399.76 427.784 400.54 426.153 401.888 424.912C403.235 423.67 404.902 423.032 406.924 423.032ZM427.949 439.842C430.537 439.842 432.701 438.955 434.509 437.182C436.318 435.373 437.24 433.175 437.24 430.586C437.24 427.997 436.318 425.798 434.509 424.025C432.701 422.216 430.537 421.33 427.949 421.33C425.36 421.33 423.126 422.216 421.317 424.025C419.508 425.798 418.622 427.997 418.622 430.586C418.622 433.175 419.508 435.373 421.317 437.182C423.126 438.955 425.36 439.842 427.949 439.842ZM422.594 435.941C421.14 434.487 420.43 432.678 420.43 430.586C420.43 428.493 421.14 426.685 422.594 425.231C424.048 423.777 425.856 423.032 427.949 423.032C430.041 423.032 431.814 423.777 433.268 425.231C434.722 426.685 435.431 428.493 435.431 430.586C435.431 432.678 434.722 434.487 433.268 435.941C431.814 437.395 430.041 438.139 427.949 438.139C425.856 438.139 424.048 437.395 422.594 435.941ZM452.168 426.366C452.168 424.344 454.012 423.032 456.423 423.032C458.445 423.032 460.253 423.99 460.963 425.727L462.452 424.876C461.459 422.713 459.26 421.33 456.423 421.33C454.65 421.33 453.196 421.826 452.061 422.784C450.962 423.741 450.394 424.947 450.394 426.366C450.394 430.089 454.26 430.834 457.345 431.579C459.473 432.04 461.14 433.068 461.14 434.806C461.14 436.934 459.225 438.139 456.565 438.139C453.905 438.139 452.026 436.969 451.352 435.019L449.827 435.905C450.714 438.281 453.161 439.842 456.565 439.842C460.36 439.842 462.913 437.749 462.913 434.806C462.913 431.011 459.047 430.231 455.962 429.557C453.834 429.025 452.168 428.103 452.168 426.366ZM466.499 416.01C466.428 417.854 469.407 417.854 469.336 416.01C469.407 414.237 466.428 414.237 466.499 416.01ZM468.804 439.452V421.72H467.031V439.452H468.804ZM483.348 421.72H478.064V416.755L476.255 417.287V421.72H472.354V423.458H476.255V434.983C476.255 438.92 478.56 440.161 483.348 439.452V437.856C479.731 438.21 478.064 438.068 478.064 434.983V423.458H483.348V421.72ZM512.661 425.727C511.136 422.997 508.406 421.33 505.037 421.33C502.519 421.33 500.355 422.216 498.547 424.025C496.738 425.798 495.852 427.997 495.852 430.586C495.852 433.175 496.738 435.373 498.547 437.182C500.355 438.955 502.519 439.842 505.037 439.842C508.406 439.842 511.136 438.175 512.661 435.444V439.452H514.47V421.72H512.661V425.727ZM499.823 435.941C498.369 434.487 497.66 432.678 497.66 430.586C497.66 428.493 498.369 426.685 499.823 425.231C501.277 423.777 503.086 423.032 505.178 423.032C507.271 423.032 509.044 423.777 510.498 425.231C511.952 426.685 512.661 428.493 512.661 430.586C512.661 432.678 511.952 434.487 510.498 435.941C509.044 437.395 507.271 438.139 505.178 438.139C503.086 438.139 501.277 437.395 499.823 435.941ZM538.852 421.33C536.405 421.33 534.171 422.536 532.93 424.947C532.043 422.642 529.986 421.33 527.397 421.33C524.808 421.33 522.929 422.465 521.688 424.77V421.72H519.915V439.452H521.688V429.557C521.688 425.266 524.064 423.032 527.185 423.032C529.986 423.032 531.724 424.912 531.724 428.21V439.452H533.497V429.557C533.497 425.195 535.66 423.032 538.816 423.032C541.654 423.032 543.533 424.912 543.533 428.21V439.452H545.306V428.21C545.306 423.848 542.717 421.33 538.852 421.33ZM558.301 421.33C555.606 421.33 553.407 422.216 551.669 423.99C549.967 425.727 549.116 427.926 549.116 430.586C549.116 433.281 550.002 435.515 551.74 437.253C553.478 438.991 555.712 439.842 558.443 439.842C561.883 439.842 564.72 438.281 566.174 435.834L564.613 434.912C563.514 436.863 561.315 438.139 558.478 438.139C556.457 438.139 554.719 437.537 553.336 436.331C551.953 435.09 551.173 433.494 550.96 431.508H567.025C567.025 431.33 567.06 430.834 567.06 430.657C567.06 428.139 566.245 425.94 564.613 424.096C563.017 422.252 560.89 421.33 558.301 421.33ZM558.301 423.032C560.109 423.032 561.634 423.635 562.947 424.841C564.259 426.011 565.039 427.678 565.216 429.77H550.96C551.137 427.784 551.917 426.153 553.265 424.912C554.613 423.67 556.279 423.032 558.301 423.032ZM579.764 421.72H574.48V416.755L572.671 417.287V421.72H568.77V423.458H572.671V434.983C572.671 438.92 574.976 440.161 579.764 439.452V437.856C576.147 438.21 574.48 438.068 574.48 434.983V423.458H579.764V421.72ZM609.113 425.834C607.659 423.032 604.857 421.33 601.488 421.33C598.935 421.33 596.771 422.216 594.963 424.025C593.19 425.798 592.303 427.997 592.303 430.586C592.303 433.175 593.19 435.373 594.963 437.182C596.771 438.955 598.935 439.842 601.488 439.842C604.857 439.842 607.659 438.139 609.113 435.338V439.452H610.886V414.627H609.113V425.834ZM596.239 435.941C594.785 434.487 594.076 432.678 594.076 430.586C594.076 428.493 594.785 426.685 596.239 425.231C597.693 423.777 599.502 423.032 601.594 423.032C603.687 423.032 605.46 423.777 606.914 425.231C608.368 426.685 609.113 428.493 609.113 430.586C609.113 432.678 608.368 434.487 606.914 435.941C605.46 437.395 603.687 438.139 601.594 438.139C599.502 438.139 597.693 437.395 596.239 435.941ZM615.799 416.01C615.728 417.854 618.707 417.854 618.636 416.01C618.707 414.237 615.728 414.237 615.799 416.01ZM618.104 439.452V421.72H616.331V439.452H618.104ZM631.69 439.842C635.13 439.842 638.144 438.068 639.563 435.338L638.073 434.451C636.903 436.721 634.527 438.139 631.69 438.139C629.562 438.139 627.789 437.43 626.335 435.976C624.881 434.522 624.172 432.713 624.172 430.586C624.172 428.458 624.881 426.685 626.335 425.231C627.789 423.777 629.562 423.032 631.69 423.032C634.527 423.032 636.938 424.451 637.967 426.72L639.421 425.869C638.144 423.067 635.13 421.33 631.69 421.33C629.03 421.33 626.796 422.216 625.023 423.99C623.249 425.763 622.363 427.961 622.363 430.586C622.363 433.21 623.249 435.409 625.023 437.182C626.796 438.955 629.03 439.842 631.69 439.842ZM652.526 421.72H647.242V416.755L645.433 417.287V421.72H641.533V423.458H645.433V434.983C645.433 438.92 647.739 440.161 652.526 439.452V437.856C648.909 438.21 647.242 438.068 647.242 434.983V423.458H652.526V421.72ZM669.548 431.082C669.548 435.657 666.994 438.139 663.342 438.139C660.044 438.139 658.129 436.047 658.129 432.749V421.72H656.32V432.749C656.32 437.04 658.98 439.842 663.2 439.842C666.143 439.842 668.271 438.6 669.548 436.083V439.452H671.321V421.72H669.548V431.082ZM695.736 421.33C693.289 421.33 691.055 422.536 689.813 424.947C688.927 422.642 686.87 421.33 684.281 421.33C681.692 421.33 679.813 422.465 678.571 424.77V421.72H676.798V439.452H678.571V429.557C678.571 425.266 680.948 423.032 684.068 423.032C686.87 423.032 688.608 424.912 688.608 428.21V439.452H690.381V429.557C690.381 425.195 692.544 423.032 695.7 423.032C698.537 423.032 700.417 424.912 700.417 428.21V439.452H702.19V428.21C702.19 423.848 699.601 421.33 695.736 421.33ZM709.404 439.345C710.007 438.742 710.007 437.678 709.404 437.075C708.801 436.473 707.737 436.473 707.134 437.075C706.532 437.678 706.532 438.742 707.134 439.345C707.737 439.948 708.801 439.948 709.404 439.345Z" fill="black"/>
</svg>
